<?xml version="1.1" standalone="no"?>
<svg xmlns="http://www.w3.org/2000/svg" version="1.1" baseProfile="full" width="260.52000732421874" height="113.85486991388245" viewBox="0 0 350 152.96024623654444" class="css-1j8o68f">
	<defs id="SvgjsDefs2547">
	</defs>
	<g id="SvgjsG2548" featurekey="symbolFeature-0" transform="matrix(1.2962962962962963,0,0,1.2962962962962963,107.27777901402226,-15.554262443825051)" fill="#111111">
		<g xmlns="http://www.w3.org/2000/svg">
			<path d="M67.45,38.21c2.386-0.735,4.701-1.243,6.837-1.59c-0.093-3.854-0.606-7.039-0.977-8.869   c-1.529,0.566-3.999,1.585-6.803,3.117c0.465,1.814,0.781,3.701,0.896,5.643C67.438,37.08,67.453,37.646,67.45,38.21z">
			</path>
			<path d="M76.453,53.136c2.3-4.647,3.571-9.216,4.185-12.318c-8.436,0.364-26.668-1.547-32.941,23.198   c-0.422,1.665-1.195,4.001-1.822,5.779C47.808,69.527,66.508,73.23,76.453,53.136z">
			</path>
			<path d="M80.278,52.645c-0.294,0.651-0.603,1.306-0.937,1.962c-3.69,7.25-8.723,12.306-15.028,15.132   C82.337,71.826,97.5,60.68,97.5,60.68S90.425,55.336,80.278,52.645z">
			</path>
			<path d="M49.97,49.317c3.307-3.979,7.621-7.131,12.923-9.428c0.425-0.184,0.849-0.358,1.271-0.524   c0.051-0.875,0.057-1.757,0.005-2.646c-0.687-11.733-9.869-21.63-13.045-24.72c-2.019,2.018-6.491,6.902-9.557,13.308   c-2.413,5.043-3.47,9.912-3.183,14.584C43.182,42.243,47.052,45.395,49.97,49.317z">
			</path>
			<path d="M22.501,53.768c-0.073-0.14-0.141-0.277-0.211-0.416c-8.953,2.861-8.482,2.56-14.79,7.328c0,0,14.662,10.778,32.285,9.155   C32.494,67.09,26.692,61.702,22.501,53.768z">
			</path>
			<path d="M21.002,40.168c0.672,3.045,1.968,7.545,4.365,12.084c4.217,7.985,10.187,13.117,17.759,15.273   c0.175-0.484,1.199-8.642,4.928-14.881C42.058,41.77,27.632,40.313,21.002,40.168z">
			</path>
			<path d="M36.04,31.073c-2.962-1.652-5.584-2.733-7.183-3.324c-0.36,1.796-0.86,4.894-0.97,8.638   c2.323,0.475,4.782,1.146,7.246,2.09C35.123,36.046,35.42,33.574,36.04,31.073z">
			</path>
		</g>
	</g>
	<g id="SvgjsG2549" featurekey="nameFeature-0" transform="matrix(0.8133157188679702,0,0,0.8133157188679702,-0.5205222423505043,87.90788904120751)" fill="#111111">
		<path d="M7.84 40.12 l-4.12 -0.12 l-0.08 0.04 l0.16 -0.24 c-0.04 -0.04 -0.08 -0.08 -0.12 -0.08 c-0.08 0 -0.16 0.28 -0.28 0.4 l-2.36 0 c-0.16 -0.28 -0.4 -0.44 -0.4 -0.64 c0 -0.12 0.08 -0.28 0.08 -0.36 c0.16 -0.24 -0.24 -0.48 2.28 -0.48 c0.24 0 0.52 0.08 0.8 0.08 c0.4 0 0.8 -0.16 0.88 -0.84 c0 -1.36 -0.04 -2.56 -0.04 -3.96 c0 -0.72 0.04 -1.68 0.04 -2.48 c0 -1.72 0 -3.32 -0.12 -4.56 c0 -0.84 0.12 -2.96 0.12 -7 c0 -0.16 -0.04 -0.48 -0.04 -0.64 c0 -0.36 0.04 -0.4 0.04 -0.88 c0 -0.36 -0.08 -0.76 -0.08 -1.12 c0 -0.28 0.04 -0.48 0.08 -0.64 c0 -0.04 -0.04 -0.24 -0.04 -0.44 s0 -0.28 0.04 -0.44 l0 -4.44 l-0.24 -0.16 l-2.12 0 c-0.12 0.08 -0.36 0.08 -0.6 0.08 c-0.16 0 -0.44 0.04 -0.44 -0.04 c0 -0.04 -0.64 0.12 -0.64 -0.72 c0.24 -0.64 0.16 -0.56 0.64 -0.8 c4.92 0 4.48 0.08 5.8 0.08 c0.48 0 3.84 -0.08 4.76 -0.08 l0.24 0.08 l2.44 0 c0.36 0.12 0.36 0.36 0.48 0.64 c0 0.36 0.04 0.64 -0.48 0.76 c-0.48 0 -1.48 -0.08 -2.48 -0.08 c-1.56 0 -1.16 0.32 -1.44 0.88 l0 11 c0 0.12 -0.08 0.84 -0.08 0.96 c0 0.08 0.08 0.2 0.08 0.28 l0 2.32 c0 0.04 0.08 0.32 0.08 0.4 l-0.08 0.16 l0 6.76 c0 0.12 0.08 0.28 0.08 0.32 s-0.04 0.12 -0.08 0.28 l0 2.68 l-0.08 0.2 c0 1.12 0.12 1.24 0.64 1.44 c0.64 0 1.84 0.08 3 0.08 c1.48 0 2.88 -0.12 3.2 -0.56 c-0.08 0 0.88 -0.04 1.16 -0.44 c0.16 0.04 0.52 -0.72 1.12 -0.72 c1.04 -1.24 -0.2 0.2 1.56 -1.56 c-0.04 0 -0.08 0 -0.08 -0.04 c0 -0.12 0.84 -0.6 0.84 -1.04 c-0.08 0 1.12 -2 1.12 -2.36 c0 -1.24 0.72 -1.92 1.04 -2.08 c0.72 0.04 1.16 -0.56 1.16 1.56 c0 1.52 -0.2 3.52 -0.36 3.48 c0 0.08 0.04 0.2 0.12 0.32 c0 0.04 -0.16 1.08 -0.16 3.52 c0 0.96 -0.32 0.64 -0.6 1.24 c-2.24 0 -2.24 -0.12 -3.24 -0.12 c-0.48 0 -1.2 0.12 -1.4 0.12 l-2.68 -0.08 c-0.56 0 -1.24 -0.04 -1.56 -0.04 c0.04 0 -0.72 0.08 -1.16 0.08 c-0.2 0 -0.32 -0.04 -0.4 -0.16 c-0.04 0 -0.76 0.16 -0.84 0.2 c0 0 -0.04 -0.08 -0.4 -0.08 c-0.2 0 -0.76 0.08 -1.28 0.08 c-0.28 0 -0.32 -0.08 -0.56 -0.08 c-0.08 0 -1.56 0.16 -2.08 0.16 c-0.12 0 -0.72 -0.08 -0.84 -0.08 z M1.44 39.44 c-0.08 0 -0.08 0.48 -0.08 0.56 l0.08 0 l0 -0.56 z M2.76 39.44 c0 0.08 0.16 0.4 0.32 0.56 c0.08 -0.08 0.16 -0.44 0.2 -0.4 c0 -0.04 -0.24 -0.16 -0.44 -0.16 l-0.08 0 z M2.6 39.84 c-0.04 0 -0.04 0.04 -0.04 0.08 s0 0.08 0.04 0.08 s0.04 -0.04 0.04 -0.08 s0 -0.08 -0.04 -0.08 z M13.84 39.72 l0 0.08 l0.08 -0.08 l-0.08 0 z M14.68 39.6 c0 0.12 0.04 0.12 0.08 0.2 c0.2 0 0.16 -0.12 0.24 -0.28 c-0.12 0 -0.24 0 -0.32 0.08 z M15.16 39.6 l0 0.2 c0.16 0 0.16 -0.08 0.16 -0.2 l-0.16 0 z M15.76 39.6 l0 0.12 l0.08 0 l0 -0.12 l-0.08 0 z M12.8 39.6 l0 0.08 l0.08 0.04 z M1.04 39.44 c-0.08 0.04 -0.12 0.04 -0.12 0.04 c0 0.08 0.16 0 0.16 0.2 z M4.72 39.44 c-0.08 0.04 -0.2 0.04 -0.24 0.08 c0.16 0 0.24 -0.04 0.24 -0.08 z M18.52 39.36 c0 -0.04 0 -0.04 -0.04 -0.04 l0 0.12 c0.04 0 0.04 -0.04 0.04 -0.08 z M17.44 39.12 c-0.12 0 -0.08 0.08 -0.16 0.16 c0.16 0 0.16 -0.12 0.16 -0.16 z M19.16 39.04 c0.04 0.04 0.04 0.2 0.16 0.24 c0 -0.2 0 -0.24 -0.08 -0.32 z M1.08 39.04 l0.2 0.08 l0.08 -0.08 l-0.08 -0.08 c-0.16 0 -0.16 0 -0.2 0.08 z M24.72 34.72 c-0.04 0 -0.08 0.04 -0.08 0.04 c0 0.04 0.04 0.04 0.08 0.04 s0.04 0 0.04 -0.04 c0 0 0 -0.04 -0.04 -0.04 z M9.44 32.64 l0 0.2 l0.28 0 c0 -0.08 -0.12 -0.2 -0.2 -0.2 l-0.08 0 z M24.72 32.68 c-0.04 0 -0.08 0.04 -0.08 0.08 s0.04 0.08 0.08 0.08 s0.04 -0.04 0.04 -0.08 s0 -0.08 -0.04 -0.08 z M24.84 30.64 c0 0.2 0 0.4 0.04 0.56 l0.16 0 l0 -0.56 l-0.2 0 z M24.2 30.52 c0 0.04 0.04 0.16 0.08 0.2 c0.08 0 0.2 -0.04 0.2 -0.08 c0 -0.12 -0.04 -0.16 -0.16 -0.16 c-0.04 0 -0.08 0 -0.12 0.04 z M4.96 18.28 l0 0.08 l0.08 0 l0 -0.08 l-0.08 0 z M4.96 14.239999999999998 c0 -0.04 -0.04 -0.04 -0.04 -0.04 c-0.04 0 -0.04 0 -0.04 0.04 s0 0.04 0.04 0.04 c0 0 0.04 0 0.04 -0.04 z M2.16 10.8 l0 0.08 l0.16 0 c-0.12 -0.08 -0.16 -0.04 -0.16 -0.08 z M1.12 10.32 c-0.04 0 -0.04 0.32 -0.04 0.4 l0.04 -0.16 l0.28 0 c0 -0.16 -0.16 -0.24 -0.28 -0.24 z M1.92 10.36 c0.08 0.16 0.08 0.2 0.2 0.2 c0 -0.2 -0.12 -0.2 -0.2 -0.2 z M7.96 10.36 l0 0.08 l0.28 0 l0 -0.08 l-0.28 0 z M11.96 10.36 c0.04 0.08 0.12 0.12 0.16 0.12 s0.08 -0.04 0.12 -0.04 z M13.84 10.239999999999998 c0 0.16 0.8 0.2 0.84 0.2 c-0.12 -0.28 -0.32 -0.16 -0.52 -0.28 c-0.08 0 -0.24 0.08 -0.32 0.08 z M3.6 10.32 c0 0.08 0.04 0.04 0.24 0.04 l0 -0.12 s-0.16 0.04 -0.24 0.08 z M7 10.32 c-0.04 0 -0.08 0 -0.08 0.04 s0.04 0.08 0.08 0.08 s0.04 -0.04 0.04 -0.08 s0 -0.04 -0.04 -0.04 z M9 10.32 c0 0 -0.04 0 -0.04 0.04 s0.04 0.08 0.04 0.08 s0.04 -0.04 0.04 -0.08 s-0.04 -0.04 -0.04 -0.04 z M12.56 10.36 c0 -0.04 -0.04 -0.04 -0.08 -0.04 s-0.08 0 -0.08 0.04 s0.04 0.08 0.08 0.08 s0.08 -0.04 0.08 -0.08 z M40.204 39.72 c0 -0.24 0.12 -0.32 0.12 -0.36 c-0.16 0 -0.16 0 -0.24 0.04 c-0.32 0 -0.88 -0.32 -1.12 -0.32 c-2.04 -1.64 -2.28 -2.36 -2.68 -3.04 c0 -0.52 -0.52 -0.72 -0.52 -1.96 c-0.2 -3.24 -0.44 -6.36 -0.44 -9.08 c0 -2.56 0.04 -3.52 0.04 -4.64 c0 -0.32 -0.04 -5.48 -0.04 -8.72 l-0.24 -0.36 l-0.64 0 c-0.08 -0.36 -0.16 -0.84 -0.56 -0.84 c-0.32 0 -0.28 0.12 -0.28 0.36 c0.08 0 0.36 -0.12 0.4 -0.16 l0.08 0.08 l0 0.44 c-0.08 0.04 -0.12 0.04 -0.16 0.04 c-0.12 0 -0.32 -0.04 -0.36 -0.04 l0.04 0.04 l-0.08 0.08 c-0.56 0 -1.32 0.12 -1.56 0.12 c-0.8 -0.24 -0.72 -0.4 -0.72 -0.92 c0.16 -0.04 0.28 -0.64 0.96 -0.64 c0.2 -0.04 0.92 0.12 1 0.12 c0.12 0 0.24 -0.04 0.36 -0.12 l2.2 0 c0.04 0.04 0.04 0.12 0.08 0.12 c0.12 0 0.44 -0.12 0.68 -0.12 c0.36 0 0.6 0.04 0.68 0.08 l1.8 0 l0.08 -0.08 l2.12 0 l0.16 0.08 c0.08 -0.08 0.16 -0.08 0.24 -0.08 c0.48 0 0.6 0.08 0.76 0.08 c0.08 0 0.24 -0.08 0.24 -0.08 l1.96 0 c0.36 0 0.6 0.4 0.72 0.6 c0 0 -0.04 0.6 -0.08 0.64 l-0.4 0.2 c-1.84 0 -1.68 -0.12 -2.92 -0.12 c-0.36 0 -0.68 0.2 -0.68 1.52 c0 0.56 0.08 0.68 0.08 0.8 l0 0 s-0.08 0.8 -0.08 1.32 c0 0.24 -0.04 0.84 0.08 0.92 c-0.04 0.64 0.04 0.52 -0.08 0.64 c0 0.12 0.08 0.2 0.08 0.32 l0 2.88 c0 0.16 -0.12 0.44 -0.12 0.48 s0.04 0.12 0.12 0.24 l0 1.36 l-0.08 0.12 c0 0.76 0.08 0.92 0.08 1.36 l0 4.08 c-0.08 0.12 -0.08 0.2 -0.08 0.28 c0 0.64 0.08 0.72 0.08 0.96 c-0.04 0.16 -0.08 0.32 -0.08 0.44 c0 0.08 0 0.2 0.08 0.36 l0 3.8 c0 2.8 0.8 2.96 0.8 3.4 c-0.04 0.04 -0.08 0.08 -0.08 0.12 c0 0.24 0.72 0.6 0.76 1.04 c0 -0.04 0.88 1.04 1.56 1.04 c-0.08 0 1.16 0.64 2.32 0.64 c1.52 0 1.72 -0.04 2.12 -0.04 s1.92 0 2.12 -0.28 l0 0.04 c0.04 0 0.16 -0.44 0.6 -0.44 c1.56 0 3.04 -2.88 3.36 -3.2 c0 -2.4 0.64 -3.28 0.64 -4.56 c0 -2.16 -0.2 -7.52 -0.2 -8.12 c0 -0.08 0.12 -0.2 0.12 -0.36 l0 -3.36 c-0.04 -0.08 -0.12 -0.2 -0.12 -0.2 c0 -0.08 0.04 -0.12 0.12 -0.2 c0 -1.8 -0.12 -1.64 -0.12 -2.2 c0 -0.08 0.12 -0.2 0.12 -0.32 l0 -4.16 c0 -0.2 -0.08 -0.48 -0.4 -0.68 c-3.36 0 -2.08 0.12 -3 0.12 c-0.48 0 -0.68 -0.12 -0.68 -0.88 c0.28 -0.36 -0.6 -0.64 3.16 -0.64 c0.2 0 1.56 0.04 1.64 0.04 c0.08 0.04 0.32 0.12 0.28 0.12 c0.04 0 0.12 -0.04 0.28 -0.12 c0.04 0 2.88 -0.12 3.2 -0.12 c0.28 0 1 0 1 0.72 c0 0.96 -0.28 0.84 -0.6 0.84 c-0.16 0 -0.84 -0.04 -0.72 -0.2 l0.28 0 c-0.08 0 -0.08 -0.08 -0.16 -0.08 c-0.12 0 -0.52 0.2 -0.88 0.2 c-0.28 0 -0.56 -0.04 -0.84 -0.04 c-0.4 0 -1.16 0.08 -1.16 0.64 c0 0.6 0.2 3.56 0.2 6.84 c0 0.08 0 0.08 -0.04 0.16 l0 10 c-0.04 5.12 -0.8 6.24 -0.8 6.76 c0 1.36 -0.92 1.16 -0.92 1.52 c0.04 0.04 0.04 0.12 0.04 0.16 c0 0.28 -0.52 0.52 -0.72 0.76 c0 -0.12 0 -0.32 -0.32 -0.32 c-0.08 0 -0.24 0.08 -0.28 0.12 c0.52 0 0.2 0.36 0.48 0.36 c0 0.16 -0.56 0.4 -0.72 0.4 l0.04 0.08 c-0.04 0 -0.04 -0.04 -0.04 -0.04 c-0.04 0.12 0.16 0.68 -0.76 0.68 c-0.76 0 -0.64 0.32 -0.72 0.4 l0.12 0.04 c0 0.04 -0.4 0.32 -0.96 0.32 c-0.04 0 -0.04 -0.04 -0.08 -0.08 c-0.4 0 -0.28 0.4 -0.8 0.4 c-0.72 0.2 -1.84 0.4 -3.28 0.4 c-4.64 0 -7.04 -0.92 -7.04 -1.04 z M47.324 40.04 l0 0.08 c0.12 0.04 0 0.52 0.12 0.52 s0.28 0 0.28 -0.08 c0 -0.16 -0.16 -0.32 -0.16 -0.44 c0 -0.04 0 -0.04 0.04 -0.08 l-0.28 0 z M47.164 40.52 l0 0.08 l0.12 0 l-0.04 -0.08 l-0.08 0 z M48.444 40.28 c-0.08 0 -0.08 0.08 -0.08 0.16 l0.12 0 c0 -0.04 -0.04 -0.12 -0.04 -0.16 z M48.364000000000004 40.12 l-0.04 0.04 c0 0.04 0.04 0.04 0.04 0.04 c0.04 0 0.04 0 0.04 -0.04 c0 0 0 -0.04 -0.04 -0.04 z M46.364 39.96 c-0.04 0 -0.08 0 -0.12 0.04 l0.2 0 z M47.164 39.96 l0 0.04 l0.08 0 z M46.564 39.88 c0 0 -0.04 0.04 -0.04 0.08 l0.04 0.04 c0.04 0 0.04 -0.04 0.04 -0.04 c0 -0.04 0 -0.08 -0.04 -0.08 z M45.684 39.8 l0 0.08 l0.12 0 l-0.04 -0.08 l-0.08 0 z M47.924 39.8 c-0.04 0 -0.04 0.04 -0.04 0.08 s0 0.08 0.04 0.08 s0.04 -0.04 0.04 -0.08 s0 -0.08 -0.04 -0.08 z M51.604 39.16 c-0.4 0 -0.36 0.32 -0.36 0.52 c0.28 -0.56 0.32 -0.32 0.4 -0.52 l-0.04 0 z M50.524 39.4 c-0.04 0 -0.08 0.04 -0.08 0.08 s0.04 0.08 0.08 0.08 l0 -0.16 z M53.123999999999995 38.96 c-0.04 0 -0.08 0.04 -0.08 0.08 c0 0 0.04 0.04 0.08 0.04 s0.04 -0.04 0.04 -0.04 c0 -0.04 0 -0.08 -0.04 -0.08 z M52.804 38.48 c-0.16 0 -0.12 0 -0.16 0.04 c0.32 0 0.2 0 0.32 -0.04 l-0.16 0 z M53.724000000000004 38.4 c-0.04 0 -0.04 0.04 -0.04 0.08 c0 0 0 0.04 0.04 0.04 s0.04 -0.04 0.04 -0.04 c0 -0.04 0 -0.08 -0.04 -0.08 z M42.644 38.24 c-0.04 0 -0.04 0.04 -0.04 0.08 s0 0.08 0.04 0.08 c0 0 0.04 -0.04 0.04 -0.08 s-0.04 -0.08 -0.04 -0.08 z M53.964 38 c-0.04 0 -0.04 0.04 -0.04 0.08 s0 0.08 0.04 0.08 s0.04 -0.04 0.04 -0.08 s0 -0.08 -0.04 -0.08 z M54.924 37.28 c-0.08 0 -0.24 0.2 -0.24 0.28 c0.32 0 0.16 -0.2 0.32 -0.28 l-0.08 0 z M37.763999999999996 37.08 l0.04 0.08 l0 -0.12 z M55.164 36.84 l-0.08 0.2 l0.16 -0.12 c-0.04 -0.04 -0.04 -0.08 -0.08 -0.08 z M36.724 36.12 c-0.04 0 -0.08 0.04 -0.08 0.08 s0.04 0.08 0.08 0.08 s0.04 -0.04 0.04 -0.08 s0 -0.08 -0.04 -0.08 z M55.004 35.64 l-0.04 0.04 c0 0.04 0.04 0.04 0.12 0.04 c0.12 0 0.12 -0.2 0.12 -0.24 c-0.24 0 -0.2 0.2 -0.2 0.16 z M55.964 35.480000000000004 l-0.04 -0.04 z M55.964 34.24 c-0.08 0.2 -0.04 0.28 -0.04 0.28 c0.04 -0.04 0.04 0.04 0.04 -0.28 z M35.964 34 c-0.04 0 -0.08 0.04 -0.08 0.04 c0 0.04 0.04 0.04 0.08 0.04 c0 0 0.04 0 0.04 -0.04 z M56.244 33.76 c0.04 0.08 0.08 0.08 0.16 0.08 c0 -0.04 -0.04 -0.16 -0.04 -0.24 c-0.08 0 -0.08 0.08 -0.12 0.16 z M35.884 33.28 c0 0.2 0.12 0.4 0.12 0.4 l0 -0.4 l-0.12 0 z M56.284 32.76 c-0.28 0 -0.08 0.36 -0.24 0.4 c0.24 0 0.28 -0.04 0.36 -0.04 c0 -0.12 -0.12 -0.2 -0.12 -0.36 z M55.804 32.44 c0.08 0.04 0.12 0.08 0.12 0.16 l0.04 -0.08 c0 -0.08 0 -0.08 -0.04 -0.12 z M36.644 32.36 c0 -0.04 -0.04 -0.04 -0.04 -0.04 c-0.04 0 -0.04 0 -0.04 0.04 s0 0.04 0.04 0.04 c0 0 0.04 0 0.04 -0.04 z M56.564 31.48 l-0.08 0.08 l0.08 0 l0 -0.08 z M55.804 29.36 c-0.04 0 -0.08 0.04 -0.08 0.08 s0.04 0.08 0.08 0.08 c0 0 0.04 -0.04 0.04 -0.08 s-0.04 -0.08 -0.04 -0.08 z M55.924 28.439999999999998 c-0.04 0 -0.08 0 -0.08 0.04 c0 0 0.04 0.04 0.08 0.04 l0 -0.08 z M55.924 28.08 c-0.04 0 -0.08 0.04 -0.08 0.08 c0 0 0.04 0.04 0.08 0.04 l0 -0.12 z M56.564 28.08 c-0.04 0 -0.08 0 -0.08 0.04 l0.08 0 l0.04 0 c0 -0.04 0 -0.04 -0.04 -0.04 z M55.804 27.96 c0 0.12 0 0.12 0.04 0.12 l0.08 -0.04 l-0.12 -0.08 l0 0 z M35.804 27.560000000000002 c-0.04 0 -0.04 0.04 -0.04 0.08 s0 0.08 0.04 0.08 s0.04 -0.04 0.04 -0.08 s0 -0.08 -0.04 -0.08 z M56.564 27 l0 0.12 l0.08 0 c0 -0.08 -0.04 -0.12 -0.08 -0.12 z M35.804 19.4 l0 0.04 l0.2 0 c-0.08 -0.08 -0.16 -0.04 -0.2 -0.04 z M56.564 18.96 c0 0.08 -0.04 0.32 0.08 0.32 l0 0.16 z M56.564 17.28 l-0.08 0 c0 0.04 0.04 0.04 0.08 0.04 s0.04 0 0.04 -0.04 l-0.04 0 z M31.644 11.079999999999998 c0.04 0.08 0.16 0.08 0.24 0.12 l0.08 -0.04 c-0.04 -0.08 -0.12 -0.08 -0.32 -0.08 z M32.804 11.2 c0 -0.04 -0.04 -0.04 -0.04 -0.04 c-0.04 0 -0.04 0 -0.04 0.04 s0 0.08 0.04 0.08 c0 0 0.04 -0.04 0.04 -0.08 z M35.044 11.16 c0 0 -0.04 0 -0.04 0.04 s0.04 0.08 0.04 0.08 s0.04 -0.04 0.04 -0.08 s-0.04 -0.04 -0.04 -0.04 z M32.164 11.079999999999998 l0.04 0.08 c0.24 0 0.2 -0.08 0.2 -0.2 z M43.403999999999996 11.04 l0 0.04 l0.32 0 c-0.12 -0.04 -0.28 -0.04 -0.32 -0.04 z M52.044 11.04 c-0.04 0 -0.08 0 -0.08 0.04 l0.08 0 l0.04 0 c0 -0.04 0 -0.04 -0.04 -0.04 z M55.204 10.96 l0 0.08 s0 0.04 0.04 0.04 c0 0 0.04 -0.04 0.08 -0.12 l-0.12 0 z M57.724000000000004 10.879999999999999 c0.04 0.2 0.12 0.16 0.44 0.16 c-0.12 0 -0.2 -0.16 -0.32 -0.28 c-0.08 0 -0.16 0.04 -0.16 0.08 z M51.724000000000004 10.559999999999999 l0 0.4 l0.08 0 c0.04 -0.04 -0.08 -0.24 -0.08 -0.4 z M60.244 10.16 c0 0.36 0.36 0.36 0.36 0.64 l0.12 0 c0 -0.32 -0.28 -0.36 -0.36 -0.72 c-0.12 0 -0.12 0.04 -0.12 0.08 z M55.924 10.48 c0 0.12 0.08 0.2 0.2 0.24 l0.16 -0.16 c0.48 0 0.24 0.08 0.64 0.08 c0.12 0 0.28 -0.04 0.28 -0.2 c-0.04 0 -0.4 0.04 -0.52 0.04 c-0.08 0 -0.16 -0.04 -0.2 -0.04 s-0.12 0 -0.24 0.04 l-0.2 -0.04 z M34.444 10.559999999999999 c-0.04 0 -0.04 0.04 -0.04 0.08 s0 0.08 0.04 0.08 s0.04 -0.04 0.04 -0.08 s0 -0.08 -0.04 -0.08 z M35.684 10.48 l0 0.08 l0.12 0 l0 -0.08 l-0.12 0 z M59.004 10.559999999999999 l-0.08 0 l0.08 0 z M33.444 10.48 l-0.08 -0.04 l0.08 0.12 l0 -0.08 z M42.444 10.440000000000001 c-0.04 0 -0.08 0 -0.08 0.04 s0.04 0.08 0.08 0.08 s0.04 -0.04 0.04 -0.08 s0 -0.04 -0.04 -0.04 z M43.884 10.399999999999999 l0 0.04 l0.04 0 z M44.123999999999995 10.440000000000001 l-0.04 -0.04 c-0.04 0 -0.04 0.04 -0.04 0.04 s0 0.04 0.04 0.04 z M54.444 10.440000000000001 l-0.04 -0.04 c-0.04 0 -0.04 0.04 -0.04 0.04 s0 0.04 0.04 0.04 z M57.763999999999996 10.399999999999999 l0 0.04 l0.16 0 c-0.12 -0.04 -0.16 -0.04 -0.16 -0.04 z M31.964 10.399999999999999 c0 -0.04 -0.08 -0.04 -0.16 -0.04 c-0.04 0 -0.08 0 -0.08 0.04 c0 0 0.04 0.04 0.08 0.04 s0.12 0 0.16 -0.04 z M44.763999999999996 10.32 c-0.08 0 -0.16 0 -0.2 0.08 l0.2 0 l0 -0.08 z M51.964 10.32 c0 0 -0.04 0.04 -0.04 0.08 l0.04 0.04 c0.04 0 0.04 -0.04 0.04 -0.04 c0 -0.04 0 -0.08 -0.04 -0.08 z M52.123999999999995 10.32 l0 0.08 c0.04 0 0.08 -0.04 0.12 -0.08 l-0.12 0 z M68.288 39.84 c-0.08 0 -0.12 0.04 -0.16 0.04 l0.16 0.16 c-0.04 0 -0.16 0.12 -0.44 0.12 c-0.32 0 -0.56 -0.44 -0.56 -0.64 c0 -0.4 0.12 -0.52 1.8 -0.52 c0.76 0 2.08 -0.04 2.24 -0.32 c0 0 0.16 -1.2 0.24 -1.32 c0 0 -0.08 -1.68 -0.08 -1.84 c0 -0.04 0.08 -0.32 0.08 -0.44 c0 -0.08 0 -0.16 -0.08 -0.32 l0 -5.04 l0.08 -0.12 c0 -1.2 -0.16 -2.08 -0.16 -3.16 c0 -1 0.08 -1.6 0.08 -2.32 l0 -12.48 c-0.12 -0.12 -0.28 -0.56 -0.4 -0.56 c0.04 0 -1.4 0.16 -2.64 0.16 c-0.32 0 -1.2 0 -1.2 -0.4 l0 -0.64 c-0.04 -0.04 0.28 -0.24 0.88 -0.24 l9.4 0 c0.36 0 0.56 0.04 0.8 0.32 c-0.04 0.04 -0.04 0.08 -0.04 0.12 c0 0.28 0.4 0.52 0.4 1.08 c-0.04 0 -0.04 -0.04 -0.04 -0.04 c-0.04 0 -0.04 0.04 -0.04 0.04 c0 0.24 0.92 1.92 0.92 2.96 c0 0.8 0.52 1.24 0.52 1.88 c-0.04 0.04 -0.04 0.04 -0.04 0.08 c0 0.16 0.52 0.6 0.52 1.52 c-0.04 0.04 -0.04 0.04 -0.04 0.08 c0 0.08 0.32 0.2 0.32 0.92 c0 0.04 -0.04 0.04 -0.04 0.08 c0 0.16 0.36 0.24 0.36 1.08 c0.16 1.76 0.6 1.6 0.6 1.84 c0.04 1.2 0.84 1.52 0.84 3.04 c0 0.56 0.68 1.56 0.68 2.32 c0.44 0.76 -0.12 0.48 0.88 2.4 l0.4 0 c0.16 -1 0.92 -2 0.92 -2.76 c0.12 -2.12 0.96 -1.92 0.96 -3.44 l0 -0.04 c0 -0.2 0.6 -1.24 0.6 -1.96 c0 -1.04 0.44 -1.2 0.44 -1.68 l-0.08 0 c0 -0.04 0.4 -0.2 0.4 -0.88 c0.16 -3.16 1.24 -2.4 1.24 -4.16 c0.4 -3.96 1.28 -2.44 1.28 -4.48 c-0.04 0 -0.04 0 -0.04 -0.04 c0 -0.08 0.64 -0.36 1.52 -0.36 c0.2 0 1.8 0.08 2 0.08 c0.24 0 3.52 -0.08 5.64 -0.08 c0.76 0 1.56 0.32 1.52 0.32 l0 0.56 l-0.08 0.08 c-0.08 0 -0.32 0.24 -0.4 0.24 l-0.08 0.08 c-1.08 0 -1.92 -0.16 -2.48 -0.16 c-0.24 0 -0.6 -0.04 -0.84 0.64 l0 14.28 c0 0.08 0.08 0.52 0.08 0.64 c0 0.08 -0.08 0.72 -0.08 0.76 s-0.04 0.04 -0.04 0.08 s0.04 0.12 0.12 0.24 c0 7.24 -0.16 5.36 -0.16 8.88 c0 1.2 0.2 2.4 1.16 2.4 c0.2 0 0.44 -0.12 0.6 -0.12 l0.96 0 l0.04 0.04 c0.4 0 0.16 -0.04 0.68 -0.04 c0.48 0 0.6 0.56 0.6 0.64 c0 0.2 -0.08 0.44 -0.36 0.44 c-0.32 0 -0.36 0.08 -0.36 0.08 c-0.16 0 -1.04 -0.08 -1.16 -0.08 c-1.92 0 -2.72 0.12 -4 0.12 c-0.36 0 -0.88 -0.12 -1.36 -0.12 c-1 0 -1.08 0.08 -1.48 0.08 c-0.8 0 -2.04 -0.12 -2.12 -0.12 c0 0.12 -1.52 0.12 -1.68 0.12 c-0.64 0 -0.64 -0.04 -0.84 -0.12 l0.12 -0.08 c0 -0.08 -0.08 -0.24 -0.12 -0.36 c-0.08 0.04 -0.08 0.12 -0.08 0.2 l0 0.16 c-0.16 0 -0.24 0 -0.24 -0.04 l0 -0.56 c0.32 -0.12 0.6 -0.32 0.72 -0.36 l1.52 0 c0.08 0.04 0 0.04 0.28 0.04 c0.04 0 0.08 0 0.08 -0.08 l0.8 0 c0 0.04 0.04 0.04 0.08 0.04 c0.2 0 0.52 -1 0.52 -3.4 c0 -3.12 -0.08 -3.96 -0.08 -5.6 c0 -0.04 0 -0.08 0.08 -0.2 c0 0.12 -0.2 -6.96 -0.2 -9.2 c-0.04 0.04 -0.04 0.08 -0.04 0.08 l0 0 s0.2 -1.76 0.2 -4.4 c0 -1.2 -0.08 -2.24 -0.48 -2.24 c0 -0.04 0.04 -0.04 0.04 -0.04 c-0.6 0 -0.56 2.08 -1.28 3.4 c0.04 0 0.04 0.04 0.04 0.08 c0 0.2 -0.44 0.76 -0.44 1.2 c0 0.04 0.04 0.08 0.04 0.12 c-0.12 -0.04 -0.08 0.72 -0.4 1.04 c0 2.08 -1.08 2.28 -1.08 3.84 c-0.28 1.2 -0.6 0.92 -0.6 2.04 c-0.08 0.84 -1.04 2.36 -1.04 2.96 c0 1.28 -0.48 0.6 -0.48 1.88 l0.04 0 c0 0.12 -0.56 0.92 -0.56 1.76 c0 2 -1.36 2.72 -1.36 4.28 c0 1.04 -0.64 1.64 -0.64 2.2 c0 0.08 -0.08 1.52 -1 1.52 c-0.84 0 -1.48 -1.84 -1.48 -2.8 c-0.32 -1.4 -0.44 -1.76 -1.08 -3.64 c-0.28 -1.36 -0.84 -1.8 -0.84 -2.52 c0 -0.56 -0.6 -1.28 -0.6 -1.8 c-0.08 -1.12 -0.12 0.08 -1.12 -3.88 c0 0 -0.24 -1.16 -0.4 -1.28 l0 -0.28 s0 -0.08 0.04 -0.12 c0.04 0.04 0.16 0.08 0.2 0.08 s0.04 0 0.04 -0.04 s-0.04 -0.12 -0.08 -0.16 c-0.08 0 -0.16 0 -0.24 0.04 c-0.12 -0.08 -0.56 -0.96 -0.56 -1.52 c-0.08 -1.48 -0.92 -2.88 -1.32 -4.28 l0 0.04 c-0.08 0 -0.92 -4.44 -1.44 -4.44 c-0.4 0 -0.32 0.04 -0.36 0.16 l0 3.44 c0 0.08 0.04 0.32 0.04 0.4 c0 0.32 -0.16 0.28 -0.16 0.44 c0 0.12 0.12 0.4 0.12 1.2 l-0.04 0.04 s0.04 0 0.04 0.08 c0 0.04 0 0.12 -0.08 0.28 c0 -0.04 0.08 1.48 0.08 1.64 c0 0.36 -0.08 1.36 -0.08 2.72 c0 0.72 0.08 3.2 0.08 3.36 c0 0.04 -0.04 0.12 -0.08 0.2 c0.08 0.24 0.08 0.36 0.08 0.72 c0 0.28 0 0.6 -0.08 0.6 c0 0.08 0.04 0.16 0.08 0.24 c0 1.24 -0.12 2 -0.12 2.44 c0 0.48 0.12 1.8 0.12 1.8 c0 0.96 -0.12 1.8 -0.12 3.28 c0 1.2 0.16 2.44 1.12 2.44 c1.24 0 2.04 -0.12 2.04 -0.2 c0.8 0 1.08 0.36 1.08 0.76 c0 0.12 -0.16 0.52 -0.76 0.52 c-0.4 0 -0.36 -0.08 -0.56 -0.24 c-0.12 0 -0.24 0.12 -0.36 0.12 s-0.12 -0.12 -0.2 -0.2 c-0.28 0.2 -0.2 0.32 -0.44 0.32 l0 -0.2 c-0.24 0 0 0.16 -0.88 0.16 c-0.04 0 -0.16 -0.04 -0.24 -0.08 c-0.04 0 -1.2 0.12 -2.04 0.12 l-0.2 -0.04 c0.24 -0.12 0.56 -0.12 0.64 -0.2 c-0.48 0 -0.8 0.04 -1.28 0.04 c0.04 0.08 0.32 0.16 0.52 0.16 l-0.2 0 c-0.2 0 -0.44 0.04 -0.56 0.2 l-0.16 -0.08 l-0.72 0 l-0.04 0.08 l-0.56 0 c-0.16 -0.12 -0.44 -0.16 -0.56 -0.2 c0 -0.2 -0.08 -0.2 -0.08 -0.2 z M68.608 39.96 c-0.04 0 -0.08 0.04 -0.08 0.04 c0 0.04 0.04 0.04 0.08 0.04 c0 0 0.04 0 0.04 -0.04 z M75.968 39.88 l0.08 0.08 l0.16 -0.08 l-0.24 0 z M70.128 39.84 l0 0.04 l0.04 -0.04 l-0.04 0 z M73.16799999999999 39.88 l0.04 0 l-0.04 0 z M73.408 39.76 c-0.04 0 -0.04 0.04 -0.04 0.08 s0 0.04 0.04 0.04 s0.04 0 0.04 -0.04 s0 -0.08 -0.04 -0.08 z M68.128 39.16 c-0.52 0 -0.56 0.2 -0.56 0.4 l0 0.2 c0.28 -0.12 0.2 -0.4 0.4 -0.44 l0.48 0 l0 -0.08 c-0.04 0 -0.28 -0.08 -0.32 -0.08 z M69.16799999999999 39.56 l-0.08 0.08 l0.08 0 l0 -0.08 z M100.208 39.16 l0.44 0.48 c0.04 -0.2 0.04 -0.32 0.08 -0.32 l0 0.2 l-0.08 0.12 c0 -0.4 -0.52 -0.36 -0.52 -0.4 s0 -0.04 0.08 -0.08 z M76.52799999999999 39.16 c-0.2 0.04 -0.24 0.08 -0.24 0.24 l0.32 -0.08 c0 -0.08 -0.04 -0.16 -0.08 -0.16 z M82.16799999999999 39.08 c0.04 0.08 0.2 0.2 0.32 0.32 c0.08 -0.04 0.12 -0.24 0.16 -0.24 c0 -0.08 -0.12 -0.08 -0.28 -0.08 l-0.2 0 z M99.168 39.24 l0.12 0.16 l0.12 -0.16 l-0.24 0 z M82.688 38.84 c-0.04 0 -0.04 0.04 -0.04 0.08 s0 0.08 0.04 0.08 s0.04 -0.04 0.04 -0.08 s0 -0.08 -0.04 -0.08 z M71.888 33.519999999999996 l0 0.08 l0.04 0 z M76.888 24.32 l0 0.08 l0.08 0 l0 -0.08 l-0.08 0 z M76.848 24 c-0.04 0 -0.08 0.04 -0.08 0.04 c0 0.04 0.04 0.08 0.08 0.08 c0 0 0.04 -0.04 0.04 -0.08 z M72.52799999999999 19.56 c-0.04 0 -0.08 0.04 -0.08 0.08 c0 0 0.04 0.04 0.08 0.04 l0.04 -0.04 c0 -0.04 -0.04 -0.08 -0.04 -0.08 z M96.128 16.32 c0 0.12 0 0.16 0.16 0.16 c-0.08 -0.08 -0.12 -0.16 -0.16 -0.16 l0 0 z M96.728 16.32 c-0.08 0.04 -0.12 0.08 -0.12 0.12 s0 0.04 0.04 0.04 s0.04 -0.08 0.08 -0.16 z M89.768 13.84 c-0.04 0 -0.08 0 -0.08 0.04 l0.08 0 l0.04 0 c0 -0.04 0 -0.04 -0.04 -0.04 z M90.488 11.32 c0.04 0.08 0.08 0.12 0.12 0.16 c0.04 0 0.12 0.04 0.12 -0.16 c0 -0.12 0 -0.24 -0.08 -0.24 c-0.12 0 -0.12 0.24 -0.16 0.24 z M68.128 10.84 c0 0.16 0.08 0.2 0.2 0.24 l0.04 -0.08 c-0.04 -0.08 -0.12 -0.12 -0.24 -0.16 z M67.688 10.760000000000002 c-0.04 0 -0.08 0.04 -0.08 0.04 c0 0.04 0.04 0.04 0.08 0.04 c0 0 0.04 0 0.04 -0.04 z M99.288 10.68 l0 0.04 l0.08 0 z M67.608 10.52 l0.08 0.16 s0.24 -0.32 0.28 -0.48 c-0.2 0 -0.36 0.04 -0.36 0.32 z M68.128 10.399999999999999 c-0.04 0 -0.08 0.04 -0.08 0.08 c0 0 0.04 0.04 0.08 0.04 s0.04 -0.04 0.04 -0.04 c0 -0.04 0 -0.08 -0.04 -0.08 z M69.688 10.399999999999999 l0 0.08 l0.08 -0.08 l-0.08 0 z M97.24799999999999 10.399999999999999 c-0.04 0 -0.08 0.04 -0.08 0.08 c0 0 0.04 0.04 0.08 0.04 l0.04 -0.04 c0 -0.04 -0.04 -0.08 -0.04 -0.08 z M99.368 10.399999999999999 c-0.04 0 -0.08 0.04 -0.08 0.08 c0 0 0.04 0.04 0.08 0.04 l0.04 -0.04 c0 -0.04 -0.04 -0.08 -0.04 -0.08 z M91.888 10.280000000000001 l0.08 0.12 c0.12 0 0.12 -0.04 0.12 -0.08 c0 0 0 -0.04 -0.04 -0.12 c-0.12 0 -0.12 0.04 -0.16 0.08 z M92.80799999999999 10.2 l0 0.2 l0.12 0 l0 -0.2 l-0.12 0 z M97.168 10.399999999999999 c0 -0.04 -0.04 -0.04 -0.04 -0.04 l0 0.12 s0.04 -0.04 0.04 -0.08 z M97.368 10.280000000000001 l-0.08 0.08 l0.08 0 l0 -0.08 z M97.848 10.280000000000001 c-0.04 0 -0.08 0.04 -0.08 0.08 c0 0 0.04 0.04 0.08 0.04 l0 -0.12 z M100.048 10.2 l0 0.16 l0.08 0 l0 -0.16 l-0.08 0 z M99.568 10.2 l-0.04 -0.04 c-0.04 0 -0.04 0.04 -0.04 0.04 c0 0.04 0 0.08 0.04 0.08 c0 0 0.04 -0.04 0.04 -0.08 z M107.41199999999999 39.36 c0.2 -0.56 0.32 -0.68 0.76 -0.68 c1.32 0 1.6 0.12 2.56 0.12 c0.36 0 0.52 -0.32 0.68 -0.52 l-0.08 -6.16 c0 -0.08 0.08 -0.2 0.08 -0.28 c0 0.04 -0.08 -0.56 -0.08 -0.72 c0 -0.04 -0.04 -0.8 0.08 -1.16 c0 -0.04 -0.08 -0.16 -0.08 -0.24 l0 -2.84 c0.08 -0.08 0.08 -0.2 0.08 -0.28 c0 -0.24 -0.08 -0.36 -0.08 -0.56 c0 0 -0.12 -9.6 -0.12 -12.72 l0.08 -0.16 l0 -1.88 c-0.28 -0.4 -1.2 -0.12 -1.32 -0.32 l-0.24 0.08 l0 0.04 c-0.08 0 -0.32 -0.12 -0.76 -0.12 c-0.08 0 -0.48 0.08 -0.56 0.16 c-0.64 0 -1.08 0.12 -1.08 -0.72 c0 -0.32 0.2 -0.76 1.52 -0.76 c0.16 0 0.52 0.08 0.76 0.08 c0.16 0 2.24 -0.08 2.28 -0.08 c0.28 0 0.76 0.12 0.92 0.12 c0.16 0.04 2.24 -0.16 3.2 -0.16 c0.12 0 0.08 0.36 0.36 0.36 c0 0 0.04 0 0.04 -0.04 s-0.04 -0.12 -0.04 -0.2 c0.44 0 0.88 -0.12 1.52 -0.24 c0.04 0.04 0.2 0.08 0.16 0.12 c0.04 0 0.12 -0.08 0.12 -0.16 c0.04 0 0.24 0.04 0.32 0.12 c0.2 -0.04 0.72 -0.16 0.76 -0.16 c1.56 0 1.64 0.72 1.64 1.12 c0 0.2 -0.28 0.6 -0.48 0.6 c-0.8 0 -2.32 -0.2 -2.68 -0.2 c-0.32 0 -0.48 0.52 -0.52 0.76 l0.04 13.4 c0 0.2 -0.04 0.76 -0.04 0.84 c0 0.04 0.04 -0.04 0.04 0.6 c0 1.4 -0.04 1.96 -0.04 2.72 c0 1.08 0.04 0.96 0.04 1.24 l0 4.64 c0 0.2 -0.12 3.36 0.48 3.48 c0.08 0 1.52 0.04 2.2 -0.04 l0.08 -0.08 l0.72 0 c0.44 0.2 0.52 0.6 0.52 0.76 c0 0.2 -0.32 0.68 -0.44 0.68 c-1.88 0 -4.76 0.12 -5.16 0.12 c0 0 -1.2 -0.08 -1.8 -0.08 c-1.76 0 -4 0.12 -5.28 0.12 c-1.04 0 -1.16 -0.32 -1.16 -0.72 z M108.252 39.84 c0 -0.04 -0.04 -0.04 -0.08 -0.04 s-0.08 0 -0.08 0.04 s0.04 0.08 0.08 0.08 s0.08 -0.04 0.08 -0.08 z M108.49199999999999 39.76 c0.16 0 0.24 0.08 0.4 0.08 c0.08 0 0.2 0 0.32 -0.08 c-0.28 0 -0.36 -0.28 -0.48 -0.32 c-0.04 0 -0.24 0 -0.24 0.24 l0 0.08 z M109.29199999999999 39.76 c-0.04 0 -0.08 0.04 -0.08 0.08 s0.04 0.08 0.08 0.08 c0 0 0.04 -0.04 0.04 -0.08 s-0.04 -0.08 -0.04 -0.08 z M110.29199999999999 39.68 l0.08 0.08 c0.2 0 0.24 0 0.32 -0.08 l-0.08 -0.04 c-0.36 0 -0.24 0 -0.32 0.04 z M118.892 39.36 c-0.24 0.08 -0.2 0.16 -0.2 0.4 c0.2 -0.08 0.16 -0.2 0.24 -0.4 l-0.04 0 z M120.252 39.36 c-0.28 0 -0.28 0.28 -0.32 0.4 l0.48 0 c0 -0.28 -0.08 -0.4 -0.16 -0.4 z M117.252 39.64 l-0.12 0.04 c0 0.04 0 0.04 0.04 0.04 z M117.732 39.68 l-0.08 -0.04 z M120.732 39.28 l0 0.24 c0.12 0.04 0.2 -0.16 0.2 -0.24 l-0.2 0 z M108.01199999999999 39.04 c-0.28 0 -0.28 0.28 -0.28 0.4 c0.16 -0.12 0.4 -0.08 0.44 -0.16 c0 -0.04 0.04 -0.24 -0.16 -0.24 z M111.01199999999999 39.32 l0.08 0.12 l0 -0.12 l-0.08 0 z M108.65199999999999 39.12 l0 0.08 l0.08 -0.08 l-0.08 0 z M119.85199999999999 39.04 c0 0.04 -0.04 0.04 -0.04 0.08 s0.04 0.04 0.12 0.08 l0.08 -0.08 l-0.08 -0.16 c-0.04 0 -0.08 0.04 -0.08 0.08 z M120.49199999999999 39.12 c0.04 0.08 0.12 0.08 0.2 0.08 c0 -0.04 -0.04 -0.12 -0.04 -0.2 z M111.85199999999999 38.6 c-0.04 0.04 -0.04 0.04 -0.04 0.08 s0.12 0.04 0.2 0.04 l0 -0.12 l-0.16 0 z M116.57199999999999 12.8 c-0.04 0 -0.08 0 -0.08 0.04 l0.08 0 l0.04 0 c0 -0.04 0 -0.04 -0.04 -0.04 z M118.612 10.64 c-0.04 0 -0.08 0.04 -0.08 0.08 s0.04 0.08 0.08 0.08 s0.04 -0.04 0.04 -0.08 s0 -0.08 -0.04 -0.08 z M107.612 10.280000000000001 c-0.04 0 -0.08 0.04 -0.08 0.08 c0 0 0.04 0.04 0.08 0.04 s0.04 -0.04 0.04 -0.04 c0 -0.04 0 -0.08 -0.04 -0.08 z M109.892 10.079999999999998 c-0.04 0 -0.08 0.04 -0.08 0.08 c0 0 0.04 0.04 0.08 0.04 l0 -0.12 z M110.452 10.079999999999998 c0 0.04 -0.04 0.04 -0.04 0.04 c0 0.04 0.04 0.04 0.12 0.08 l0 -0.12 l-0.08 0 z M107.93199999999999 10.04 c-0.16 0 -0.12 0.04 -0.12 0.12 c0.08 0 0.16 0 0.2 -0.08 z M127.576 39.44 l0 -0.2 l0.48 -0.48 l1.96 0 l0.16 0.08 l0.92 0.08 c0.16 0.08 0.36 -0.52 0.48 -0.52 l0 -4.84 c0 -0.04 -0.08 -0.52 -0.08 -0.56 c0 0 0.08 -0.96 0.08 -1.16 c0.08 -0.12 -0.12 0.16 -0.12 -0.64 c0 -0.08 0.12 -0.16 0.12 -0.32 c0 -0.28 -0.08 -0.44 -0.08 -0.64 c0 -0.08 0.08 -0.36 0.08 -0.52 l0 -2.52 c0 -0.36 -0.12 -1 -0.12 -1.48 l0.04 -3.44 c-0.04 -0.16 -0.04 -1.2 -0.04 -1.4 c0 -0.12 0.04 -1.04 0.04 -1.16 c0 -0.04 -0.04 -2.08 -0.04 -2.32 c0 -2.48 0.04 -2.92 0.04 -4 c0 -0.48 0 -1.52 -0.04 -1.84 l-0.24 -0.28 s-0.8 -0.04 -1.12 -0.04 c-0.52 0 -0.92 0.12 -1.4 0.12 c-0.44 -0.08 -0.88 0.24 -1.28 -0.68 c0 -0.36 0.08 -0.8 0.44 -0.88 c8.16 0 9 0.08 12.24 0.08 c7.76 0 7.32 -0.08 10.56 -0.08 c0.4 0 0.84 7.32 0.84 7.68 c0 0.04 0.04 0.04 0.04 0.08 c0 0.48 -0.72 0.84 -0.96 0.84 c-0.52 0 -0.8 -0.56 -0.96 -1.2 c0.16 0 -1.72 -3.08 -1.64 -2.92 c-0.52 -0.52 -0.56 -0.6 -0.88 -1 c0 -0.36 -1.72 -1.16 -1.92 -1.44 c0 0.04 -0.04 0.04 -0.04 0.04 c-0.12 0 -0.24 -0.48 -1.08 -0.48 c-1.12 0 -1.04 -0.16 -2.76 -0.16 l0 -0.08 l-1.24 0 l-0.08 0.08 l-0.52 0 l0.28 -0.08 c-0.92 0 -1.32 -0.12 -1.56 -0.12 c-0.36 0 -0.8 0.2 -0.8 1.36 c0 2.24 0.08 3.44 0.08 4 c0 0.6 -0.08 2.36 -0.08 2.6 c0 0.68 0.16 1.24 0.16 1.72 c-0.08 0 -0.16 0.28 -0.16 0.4 s0.16 0.88 0.16 1.24 c0 0.08 -0.08 0.2 -0.08 0.24 c0 0.12 -0.12 1.64 0.28 1.64 c0.92 0 1.6 -0.24 2.32 -0.24 l0 0.04 c0.12 0 0.48 -0.6 0.76 -0.6 c0.48 0 0.56 -0.16 1.08 -0.68 l0 0.04 c-0.04 0 0.68 -1.44 1.08 -1.92 c0.68 -0.32 -0.24 -2 1.76 -2 l0.12 0.08 c0 0.36 0.2 0.48 0.2 1.6 c-0.04 0.32 -0.08 1.36 -0.08 1.28 c0 0.44 0.08 1.12 0.08 1.68 c0 0.48 0 0.48 -0.08 0.72 c0 0.4 0.08 0.92 0.08 1.04 c0 0.52 -0.08 0.52 -0.08 0.92 c0 0.32 0.08 2.48 0.08 2.76 c0 0.16 -0.08 0.32 -0.08 0.56 l0 1.48 c0.04 0.04 -0.32 0.32 -0.52 0.32 c-1.28 0 -0.2 -0.24 -1.64 -2.84 c-1.12 -1.96 -1.48 -1.88 -2.12 -2.44 c0.04 0 -1.16 -0.4 -1.44 -0.4 l-0.12 -0.2 l-1.28 -0.04 c-0.6 0.32 -0.52 2 -0.52 1.36 c0 0.16 0.12 0.56 0.12 1.16 c0 0.28 -0.04 0.76 -0.12 1.2 c0 0.04 0.12 0.4 0.12 0.64 c0 0.4 -0.08 0.36 -0.08 0.52 c0 0.28 0.08 0.44 0.08 0.56 c-0.12 1.56 -0.16 4.36 -0.16 4.84 c0 2.52 -0.04 2.72 0.56 3.32 l1.72 0 c0.16 -0.04 0.36 -0.16 0.52 -0.16 c0.04 0 2.4 0.08 2.72 0.08 s0.04 -0.2 0.88 -0.2 c1.52 -0.6 1.44 -0.08 2.72 -1.08 c-0.04 0 -0.04 -0.04 -0.04 -0.04 c0 -0.12 1 -0.56 1.52 -1.2 c-0.04 0 -0.04 -0.04 -0.04 -0.04 c0 -0.6 1.76 -1.04 1.76 -2.48 c0 -0.16 0.72 -1.08 0.72 -1.32 c1 -2.52 0.36 -2.4 1.64 -2.4 c0.04 0 0.48 0 0.48 0.52 c0 2.6 -0.4 5.8 -0.4 7.6 c0 0.28 0.04 0.56 0.04 0.84 c0 0.48 -0.16 0.88 -1.12 0.88 l-15.4 0 c-2.32 0 -3.16 0.08 -7.44 0.08 c-0.76 -0.24 -0.56 -0.56 -0.56 -0.64 z M127.976 39.6 l0 -0.04 l0 0.12 c0 0.12 0.04 0.28 0.4 0.28 c0.08 0 0.2 0 0.32 -0.04 l0 -0.08 l-0.32 -0.36 c-0.04 0.08 -0.08 0.16 -0.16 0.2 c-0.04 0 -0.16 -0.04 -0.24 -0.12 l0 0.04 z M142.176 39.76 l0.04 0.08 c0.04 -0.04 0.04 -0.04 0.04 -0.16 z M140.61599999999999 39.68 c-0.12 0 -0.16 0 -0.2 0.08 l0.2 0 l0 -0.08 z M129.376 39.24 c0.08 0 0.24 0.08 0.28 0.08 c0.36 0 0.24 0 0.36 -0.08 c-0.08 0 -0.36 -0.08 -0.4 -0.08 c-0.16 0 -0.16 0 -0.24 0.08 z M151.33599999999998 39.24 c0.04 0.12 0.16 0.08 0.24 0.08 c-0.04 -0.08 -0.12 -0.08 -0.24 -0.08 z M132.456 39.24 c0 -0.04 -0.04 -0.04 -0.08 -0.04 s-0.08 0 -0.08 0.04 s0.04 0.08 0.08 0.08 s0.08 -0.04 0.08 -0.08 z M128.21599999999998 39.12 l0 0.04 l0.4 0 c-0.08 -0.04 -0.32 -0.04 -0.4 -0.04 z M131.896 33.8 l-0.04 -0.04 c-0.04 0 -0.04 0.04 -0.04 0.04 c0 0.04 0 0.08 0.04 0.08 c0 0 0.04 -0.04 0.04 -0.08 z M131.816 32.08 l0 0.16 c0.04 0 0.04 -0.04 0.04 -0.08 s0 -0.08 -0.04 -0.08 z M131.896 31.84 c0.04 0.08 0.12 0.08 0.24 0.08 c0 -0.08 0.04 -0.32 -0.08 -0.4 c0 0.08 -0.16 0.2 -0.16 0.32 z M132.136 31.08 c0 0.04 0 0.08 0.04 0.12 l0.04 -0.12 l-0.08 0 z M152.136 31.08 c-0.04 0 -0.08 0.04 -0.08 0.08 c0 0 0.04 0.04 0.08 0.04 s0.04 -0.04 0.04 -0.04 c0 -0.04 0 -0.08 -0.04 -0.08 z M152.33599999999998 31 c-0.04 0 -0.04 0.04 -0.04 0.08 c0 0 0 0.04 0.04 0.04 l0 -0.12 z M131.896 24.96 c-0.04 0 -0.08 0.04 -0.08 0.08 c0 0 0.04 0.04 0.08 0.04 s0.04 -0.04 0.04 -0.04 c0 -0.04 0 -0.08 -0.04 -0.08 z M132.176 24.96 c0 -0.04 0 -0.04 -0.04 -0.04 l0 0.08 c0.04 0 0.04 0 0.04 -0.04 z M131.896 23.2 l-0.04 -0.04 c-0.04 0 -0.04 0.04 -0.04 0.04 c0 0.04 0 0.08 0.04 0.08 c0 0 0.04 -0.04 0.04 -0.08 z M144.656 19.84 c0 -0.04 -0.04 -0.04 -0.08 -0.04 c0 0 -0.04 0 -0.04 0.04 s0.04 0.08 0.04 0.08 c0.04 0 0.08 -0.04 0.08 -0.08 z M150.33599999999998 17.92 c-0.04 0 -0.08 0.04 -0.08 0.08 c0 0 0.04 0.04 0.08 0.04 s0.04 -0.04 0.04 -0.04 c0 -0.04 0 -0.08 -0.04 -0.08 z M136.416 15.920000000000002 c-0.04 0.04 -0.04 0.12 -0.04 0.16 l0.44 0 c-0.04 -0.08 -0.2 -0.16 -0.4 -0.16 z M131.816 14.36 l0 0.16 c0.04 0 0.04 -0.04 0.04 -0.08 s0 -0.08 -0.04 -0.08 z M131.816 12.32 l0 0.16 c0.04 0 0.04 -0.04 0.04 -0.08 s0 -0.08 -0.04 -0.08 z M150.736 10.84 l0 0.4 l0.04 -0.2 c0 -0.08 0 -0.12 -0.04 -0.2 z M130.416 11.079999999999998 c-0.04 0 -0.04 0.04 -0.04 0.08 s0 0.08 0.04 0.08 s0.04 -0.04 0.04 -0.08 s0 -0.08 -0.04 -0.08 z M133.77599999999998 11.16 c0 -0.04 -0.04 -0.04 -0.04 -0.04 c-0.04 0 -0.04 0 -0.04 0.04 s0 0.08 0.04 0.08 c0 0 0.04 -0.04 0.04 -0.08 z M129.296 10.760000000000002 c-0.36 0 -0.16 0.28 -0.28 0.32 c0.24 0 0.28 -0.04 0.28 -0.12 c0 -0.04 -0.04 -0.08 -0.04 -0.12 s0.04 -0.04 0.04 -0.08 z M130.256 10.96 l0.12 0.08 l0.04 -0.08 l-0.08 -0.04 z M128.49599999999998 10.84 c-0.04 0 -0.04 0.04 -0.04 0.08 c0 0 0 0.04 0.04 0.04 s0.04 -0.04 0.04 -0.04 c0 -0.04 0 -0.08 -0.04 -0.08 z M128.896 10.68 l-0.28 0.08 l0.28 0 l0 -0.08 z M132.456 10.68 c-0.04 0 -0.08 0.04 -0.08 0.04 c0 0.04 0.04 0.04 0.08 0.04 c0 0 0.04 0 0.04 -0.04 z M136.49599999999998 10.68 l0 0.08 l0.04 0 z M129.096 10.68 l-0.08 0 c0 0.04 0 0.08 0.04 0.08 c0 0 0.04 -0.04 0.04 -0.08 z M130.016 10.64 c-0.08 0 -0.08 0.08 -0.08 0.08 c0.04 0 0.04 -0.04 0.08 -0.08 z M131.736 10.68 l-0.08 0 c0 0.04 0 0.08 0.04 0.08 c0 0 0.04 -0.04 0.04 -0.08 z M138.256 10.64 c-0.08 0 -0.16 0.04 -0.24 0.04 l0.28 0 z M127.89599999999999 10.64 c0 0 0 -0.04 -0.04 -0.04 l0 0.08 c0.04 0 0.04 0 0.04 -0.04 z M139.976 10.52 c0 0.16 0.04 0.08 0.08 0.12 c0 0 0.04 0 0.08 -0.04 l-0.08 -0.16 z M150.576 10.120000000000001 l0 0.48 l0.08 0 c0 -0.12 0.04 -0.48 -0.08 -0.48 z M129.536 10.2 c-0.04 0 -0.08 0.04 -0.08 0.04 c0 0.04 0.04 0.04 0.08 0.04 s0.04 0 0.04 -0.04 c0 0 0 -0.04 -0.04 -0.04 z M128.21599999999998 10.2 l-0.04 -0.08 z M128.696 10.04 c-0.08 0.04 -0.12 0.08 -0.12 0.12 l0.04 0.04 l0.08 0 l0 -0.16 z M159.42 39.64 l0 -0.2 c0.08 -0.08 -0.04 -0.76 0.84 -0.76 c0.68 0 0.8 0.04 1.16 0.04 c0.8 0 1.4 -0.04 1.52 -0.24 l0 -3.4 c0 -0.08 -0.04 -0.36 -0.04 -0.4 l-0.04 0.04 c-0.08 -0.08 0.08 0.36 0.08 -1.08 c0 -3 -0.04 -4.12 -0.04 -5.12 c0 -0.64 0 -1.88 0.08 -2.92 c0 -0.08 -0.16 -0.6 -0.16 -1.6 c0 -0.48 0.12 -0.48 0.12 -0.72 c0 -0.64 -0.04 -1.24 -0.04 -1.72 c0 -0.84 0.04 -1.48 0.04 -2.4 c0 -0.24 0.6 -0.2 0.72 -0.32 c0 0 0 -0.2 -0.36 -0.2 c0 0 -0.12 0 -0.24 0.16 c-0.04 0 -0.08 -0.04 -0.12 -0.16 l0 -6.76 c0 -0.52 -0.12 -0.84 -0.64 -0.84 c-0.76 0 -0.92 0.12 -2.28 0.12 c-1.08 0 -0.44 -0.16 -1.04 -0.52 c0 -0.96 3 -0.68 3.84 -0.8 l-0.12 0 c0 0.04 2.32 0.16 2.32 0.16 c0.08 0 0.16 0.04 0.24 0.04 c0.48 0 0.68 -0.2 1.04 -0.2 c0.16 0 0.32 0.04 0.52 0.04 c0.12 0 0.44 -0.04 0.64 -0.04 c0.48 0 1.92 0.04 2.36 0.04 c0.32 0 0.56 -0.12 1.2 -0.12 c0.2 0 3.68 0.08 4.12 0.08 c0.8 0 2.12 0.4 3.2 0.4 c1.52 0.16 0.6 0.36 2.12 0.72 c-0.04 0 -0.08 -0.04 -0.08 -0.04 c0 0.04 1.12 0.64 1.12 0.76 c0.48 0.12 1.2 1.12 1.56 1.44 l-0.04 -0.04 s1.08 1.52 1.08 2.88 c0 1.48 0 1.56 -0.32 2.56 c0 0.68 -0.92 1.88 -2.52 3.24 c-0.2 -0.08 -0.44 0.68 -1.16 0.68 c0.12 -0.4 -0.2 0.52 -1.32 0.6 c-0.04 -0.04 -0.08 -0.04 -0.08 -0.04 c-0.2 0 -0.48 0.36 -0.64 0.36 c-1.52 0.4 -2.2 0.24 -2.2 0.84 c0 0 -0.08 0.32 0.24 0.32 c0.44 -0.08 1.16 0.64 1.4 0.64 c0.84 0 1 0.76 1.68 0.76 c0.72 0.32 1 0.56 1.88 1.48 c0.88 2.6 1.56 1.2 1.56 3.16 c0 1.08 0.36 1.84 0.36 2.92 c0 0.16 -0.08 0.84 -0.08 2.24 c0.08 0.52 0.12 1.56 0.28 1.72 l0 -0.08 c0 0.04 -0.12 1.32 1.28 1.32 c0.96 0 1.4 -0.12 1.68 -0.12 c0 0 0.04 0.04 0.08 0.04 c0.08 0 0.28 -0.08 0.44 -0.08 s0.32 0.04 0.4 0.2 l-0.28 0 c0 0.2 0.12 0.2 0.12 0.28 c0.08 -0.04 0.12 -0.12 0.16 -0.12 l0.04 0 l0 0.52 c-0.12 0 -0.12 -0.12 -0.12 -0.28 c-0.08 0.04 -0.12 0.04 -0.32 0.12 c0 0.08 0.04 0.16 0.32 0.28 c-0.16 0.08 -0.2 0.28 -0.4 0.28 l0 -0.04 s-0.2 0.4 -1.4 0.4 c-0.44 0 -3.16 -0.16 -3.88 -0.2 c0 0.04 0 0.04 -0.04 0.04 c-0.32 0 -1.08 -0.8 -1.72 -0.8 l0.04 0 c0 -0.16 -1.8 -1 -1.84 -1.76 l0.04 0.04 c0 -0.04 -0.4 -0.4 -0.4 -0.52 c0 -0.08 0.04 -0.32 0.04 -0.56 c0 -0.12 -0.12 -0.12 -0.32 -0.2 c-0.28 -6.52 -0.88 -8.32 -1.48 -9.2 c-0.12 0.44 0.16 -0.48 -0.76 -0.92 c0 -0.28 -1.24 -0.72 -1.2 -0.88 c-0.08 0 -0.16 0.04 -0.2 0.04 c-0.84 0 -0.8 -0.8 -2.16 -0.8 l-2.16 0 c-0.44 0.92 -0.44 2.08 -0.44 2.64 c0 0.12 0 1.04 0.08 1.12 c0 0.04 -0.04 0.16 -0.12 0.56 c0 0.12 0.08 0.6 0.08 0.92 l0 -0.04 c0 0.24 -0.04 1.12 -0.04 1.4 c0 0.52 0.04 0.64 0.04 1 l0 4.64 c0 0.08 0.08 0.32 0.08 0.4 c0 0.12 -0.08 0.36 -0.08 0.52 c0 0.52 0.08 0.6 0.08 0.8 c-0.04 0.04 -0.08 0.04 -0.08 0.08 c0 0.12 0.56 0.2 1.64 0.2 c0.04 0 0.84 -0.08 0.88 -0.08 c1.12 0 1.12 0.08 1.36 0.4 c0 0.72 -0.16 0.84 -0.28 0.84 c-0.04 0 -0.08 -0.04 -0.16 -0.2 c-0.2 0 -0.24 0 -0.24 0.04 c0.32 0.36 -3.88 0.36 -4.32 0.36 l0.08 0 s-1.36 -0.04 -1.88 -0.16 c-1.6 0.16 -4.36 0 -5.48 0.4 c-0.48 0 -0.92 0 -0.92 -0.64 z M184.1 39.88 c-0.04 0 -0.08 0.04 -0.08 0.08 s0.04 0.08 0.08 0.08 c0 0 0.04 -0.04 0.04 -0.08 s-0.04 -0.08 -0.04 -0.08 z M185.17999999999998 39.52 c-0.28 0 -0.2 0.16 -0.32 0.36 c0 0 0.04 0.04 0.08 0.04 c0.12 0 0.24 -0.2 0.24 -0.4 z M161.5 39.76 c-0.08 0 -0.2 0 -0.28 0.04 c0.08 0 0.2 0 0.28 -0.04 z M161.57999999999998 39.76 l0 0.04 l0.08 0 z M163.01999999999998 39.8 l-0.04 -0.04 c-0.04 0 -0.04 0.04 -0.04 0.04 c0 0.04 0 0.08 0.04 0.08 c0 0 0.04 -0.04 0.04 -0.08 z M163.78 39.72 c-0.04 0.04 -0.08 0.04 -0.08 0.08 c0.04 0 0.12 0 0.16 -0.04 z M169.98 39.64 l0 0.12 l0.24 0 c-0.08 -0.08 -0.12 -0.12 -0.24 -0.12 z M171.54 39.72 c-0.04 0 -0.08 0.04 -0.08 0.04 s0.04 0.04 0.08 0.04 s0.04 -0.04 0.04 -0.04 s0 -0.04 -0.04 -0.04 z M185.33999999999997 39.4 c-0.04 0.12 0.16 0.32 0.16 0.36 c0.2 0 0.2 0 0.32 -0.04 c-0.12 -0.36 0 -0.44 -0.32 -0.6 c-0.12 0.08 -0.16 0.04 -0.16 0.28 z M169.42 39.64 l-0.08 0.08 l0.08 0 l0 -0.08 z M172.1 38.92 c0 0.36 0.24 0.36 0.24 0.64 l0.08 0 l0 -0.44 c-0.04 -0.08 -0.12 -0.16 -0.32 -0.2 z M160.1 39 l0 0.12 c0 -0.04 0.04 0.36 0.28 0.36 c0.04 0 0.12 -0.08 0.2 -0.16 c-0.04 0.04 -0.32 -0.32 -0.44 -0.32 l-0.04 0 z M160.78 39.4 c0 -0.04 -0.04 -0.04 -0.04 -0.04 c-0.04 0 -0.04 0 -0.04 0.04 c0 0 0 0.04 0.04 0.04 z M169.5 39.32 c-0.04 0 -0.04 0.04 -0.04 0.04 c0 0.04 0 0.04 0.04 0.04 s0.04 0 0.04 -0.04 c0 0 0 -0.04 -0.04 -0.04 z M170.73999999999998 39.2 l0 0.2 c0.08 -0.04 0.16 -0.08 0.2 -0.16 c-0.08 -0.04 -0.12 -0.04 -0.2 -0.04 z M160.1 38.72 c-0.04 0 -0.04 0.04 -0.04 0.08 s0 0.08 0.04 0.08 s0.04 -0.04 0.04 -0.08 s0 -0.08 -0.04 -0.08 z M178.54 37.68 c0.04 0.08 0.08 0.2 0.08 0.2 c0.04 0 0.04 0 0.04 -0.04 l0 -0.16 l-0.12 0 z M167.38 36.6 l0.16 0.08 c0.08 -0.04 0.08 -0.12 0.08 -0.2 c-0.12 0 -0.16 0.04 -0.24 0.12 z M176.85999999999999 35 c0.04 0 0.04 0.04 0.04 0.08 c0 0 0 0.04 -0.04 0.04 s-0.04 -0.04 -0.04 -0.04 c0 -0.04 0 -0.08 0.04 -0.08 z M177.33999999999997 34.96 c0.04 0.04 0.08 0.04 0.16 0.04 c-0.08 -0.04 -0.12 -0.04 -0.16 -0.04 z M163.45999999999998 30.8 c-0.04 0 -0.08 0.04 -0.08 0.08 s0.04 0.08 0.08 0.08 s0.04 -0.04 0.04 -0.08 s0 -0.08 -0.04 -0.08 z M163.14 29.759999999999998 c-0.04 0 -0.08 0.04 -0.08 0.08 s0.04 0.08 0.08 0.08 s0.04 -0.04 0.04 -0.08 s0 -0.08 -0.04 -0.08 z M176.5 24.96 c-0.04 0 -0.08 0.04 -0.08 0.04 c0 0.04 0.04 0.08 0.08 0.08 c0 0 0.04 -0.04 0.04 -0.08 z M166.94 24.28 l0 0.16 l0.04 0.04 c0.12 0 0.28 -0.16 0.28 -0.2 l-0.32 0 z M167.01999999999998 23.88 c0 0.04 -0.04 0.04 -0.04 0.04 c0 0.04 0.04 0.04 0.16 0.04 c0 0 0.04 0 0.12 -0.04 c-0.04 -0.12 0 -0.16 -0.12 -0.32 c-0.04 0 -0.16 0.24 -0.12 0.28 z M168.7 20.44 l0 2.04 c0 0.68 0.4 0.8 0.76 1 c6.36 -0.16 6.36 -1.04 6.96 -1.64 c-0.04 0 -0.04 -0.04 -0.04 -0.04 c0 -0.2 0.6 -0.6 0.6 -0.88 l-0.04 0 c0 -0.16 0.84 -1.48 0.84 -3.2 c0 -4.08 -1.12 -4.84 -1.28 -5.68 c0 -0.04 -1.2 -1.08 -2.6 -1.08 c-0.88 0 -1.08 0.08 -1.4 0.08 l-3 0 c-0.84 0 -0.52 0.4 -0.76 0.84 l0 3.16 l0.08 0.2 c0 1.56 -0.16 3 -0.16 4.4 c0 0.08 0 0.2 0.12 0.32 c0 0.08 -0.08 0.2 -0.08 0.48 z M163.45999999999998 19.56 c-0.04 0 -0.08 0.04 -0.08 0.04 l0.08 0 l0.04 0 s0 -0.04 -0.04 -0.04 z M163.33999999999997 19.36 c-0.04 0 -0.04 0.04 -0.04 0.08 c0 0 0 0.04 0.04 0.04 l0.04 -0.04 c0 -0.04 -0.04 -0.08 -0.04 -0.08 z M163.45999999999998 19.16 c-0.04 0 -0.08 0.04 -0.08 0.08 c0 0 0.04 0.04 0.08 0.04 s0.04 -0.04 0.04 -0.04 c0 -0.04 0 -0.08 -0.04 -0.08 z M163.14 16.84 l0 0.2 l0.08 0 c0 -0.08 0 -0.16 -0.08 -0.2 z M181.17999999999998 12.2 c0.04 0.08 0.16 0.08 0.2 0.08 l0 -0.24 c-0.12 0 -0.2 0 -0.2 0.16 z M178.14 10.84 c-0.04 0 -0.08 0.04 -0.08 0.08 s0.04 0.04 0.08 0.04 s0.04 0 0.04 -0.04 s0 -0.08 -0.04 -0.08 z M161.57999999999998 10.559999999999999 c0.08 0.04 0.16 0.04 0.24 0.04 l-0.16 -0.12 z M165.45999999999998 10.559999999999999 l0 -0.04 c-0.04 0 -0.04 0 -0.04 0.04 s0 0.04 0.04 0.04 l0 -0.04 z M174.82 10.48 l0.16 0.08 c0.2 0 0.2 -0.08 0.2 -0.28 c0 -0.04 -0.04 -0.04 -0.2 -0.04 c-0.08 0 -0.16 0 -0.16 0.24 z M170.73999999999998 10.239999999999998 c0 0.08 -0.04 0.24 0.08 0.24 c0.04 -0.04 0.08 -0.16 0.12 -0.24 l-0.2 0 z M176.33999999999997 10.399999999999999 c-0.04 0 -0.08 0.04 -0.08 0.04 c0 0.04 0.04 0.04 0.08 0.04 s0.04 0 0.04 -0.04 c0 0 0 -0.04 -0.04 -0.04 z M162.17999999999998 10.239999999999998 l0 0.08 c0 -0.04 0.12 0.08 0.2 -0.08 l-0.2 0 z M172.5 10.239999999999998 c-0.08 0 -0.12 0.04 -0.16 0.08 l0.16 0 l0 -0.08 z M159.42 10.239999999999998 l0.04 0 l0.96 0 l-1 0 z M193.42399999999998 39.44 l0 -0.2 l0.48 -0.48 l1.96 0 l0.16 0.08 l0.92 0.08 c0.16 0.08 0.36 -0.52 0.48 -0.52 l0 -4.84 c0 -0.04 -0.08 -0.52 -0.08 -0.56 c0 0 0.08 -0.96 0.08 -1.16 c0.08 -0.12 -0.12 0.16 -0.12 -0.64 c0 -0.08 0.12 -0.16 0.12 -0.32 c0 -0.28 -0.08 -0.44 -0.08 -0.64 c0 -0.08 0.08 -0.36 0.08 -0.52 l0 -2.52 c0 -0.36 -0.12 -1 -0.12 -1.48 l0.04 -3.44 c-0.04 -0.16 -0.04 -1.2 -0.04 -1.4 c0 -0.12 0.04 -1.04 0.04 -1.16 c0 -0.04 -0.04 -2.08 -0.04 -2.32 c0 -2.48 0.04 -2.92 0.04 -4 c0 -0.48 0 -1.52 -0.04 -1.84 l-0.24 -0.28 s-0.8 -0.04 -1.12 -0.04 c-0.52 0 -0.92 0.12 -1.4 0.12 c-0.44 -0.08 -0.88 0.24 -1.28 -0.68 c0 -0.36 0.08 -0.8 0.44 -0.88 c8.16 0 9 0.08 12.24 0.08 c7.76 0 7.32 -0.08 10.56 -0.08 c0.4 0 0.84 7.32 0.84 7.68 c0 0.04 0.04 0.04 0.04 0.08 c0 0.48 -0.72 0.84 -0.96 0.84 c-0.52 0 -0.8 -0.56 -0.96 -1.2 c0.16 0 -1.72 -3.08 -1.64 -2.92 c-0.52 -0.52 -0.56 -0.6 -0.88 -1 c0 -0.36 -1.72 -1.16 -1.92 -1.44 c0 0.04 -0.04 0.04 -0.04 0.04 c-0.12 0 -0.24 -0.48 -1.08 -0.48 c-1.12 0 -1.04 -0.16 -2.76 -0.16 l0 -0.08 l-1.24 0 l-0.08 0.08 l-0.52 0 l0.28 -0.08 c-0.92 0 -1.32 -0.12 -1.56 -0.12 c-0.36 0 -0.8 0.2 -0.8 1.36 c0 2.24 0.08 3.44 0.08 4 c0 0.6 -0.08 2.36 -0.08 2.6 c0 0.68 0.16 1.24 0.16 1.72 c-0.08 0 -0.16 0.28 -0.16 0.4 s0.16 0.88 0.16 1.24 c0 0.08 -0.08 0.2 -0.08 0.24 c0 0.12 -0.12 1.64 0.28 1.64 c0.92 0 1.6 -0.24 2.32 -0.24 l0 0.04 c0.12 0 0.48 -0.6 0.76 -0.6 c0.48 0 0.56 -0.16 1.08 -0.68 l0 0.04 c-0.04 0 0.68 -1.44 1.08 -1.92 c0.68 -0.32 -0.24 -2 1.76 -2 l0.12 0.08 c0 0.36 0.2 0.48 0.2 1.6 c-0.04 0.32 -0.08 1.36 -0.08 1.28 c0 0.44 0.08 1.12 0.08 1.68 c0 0.48 0 0.48 -0.08 0.72 c0 0.4 0.08 0.92 0.08 1.04 c0 0.52 -0.08 0.52 -0.08 0.92 c0 0.32 0.08 2.48 0.08 2.76 c0 0.16 -0.08 0.32 -0.08 0.56 l0 1.48 c0.04 0.04 -0.32 0.32 -0.52 0.32 c-1.28 0 -0.2 -0.24 -1.64 -2.84 c-1.12 -1.96 -1.48 -1.88 -2.12 -2.44 c0.04 0 -1.16 -0.4 -1.44 -0.4 l-0.12 -0.2 l-1.28 -0.04 c-0.6 0.32 -0.52 2 -0.52 1.36 c0 0.16 0.12 0.56 0.12 1.16 c0 0.28 -0.04 0.76 -0.12 1.2 c0 0.04 0.12 0.4 0.12 0.64 c0 0.4 -0.08 0.36 -0.08 0.52 c0 0.28 0.08 0.44 0.08 0.56 c-0.12 1.56 -0.16 4.36 -0.16 4.84 c0 2.52 -0.04 2.72 0.56 3.32 l1.72 0 c0.16 -0.04 0.36 -0.16 0.52 -0.16 c0.04 0 2.4 0.08 2.72 0.08 s0.04 -0.2 0.88 -0.2 c1.52 -0.6 1.44 -0.08 2.72 -1.08 c-0.04 0 -0.04 -0.04 -0.04 -0.04 c0 -0.12 1 -0.56 1.52 -1.2 c-0.04 0 -0.04 -0.04 -0.04 -0.04 c0 -0.6 1.76 -1.04 1.76 -2.48 c0 -0.16 0.72 -1.08 0.72 -1.32 c1 -2.52 0.36 -2.4 1.64 -2.4 c0.04 0 0.48 0 0.48 0.52 c0 2.6 -0.4 5.8 -0.4 7.6 c0 0.28 0.04 0.56 0.04 0.84 c0 0.48 -0.16 0.88 -1.12 0.88 l-15.4 0 c-2.32 0 -3.16 0.08 -7.44 0.08 c-0.76 -0.24 -0.56 -0.56 -0.56 -0.64 z M193.82399999999998 39.6 l0 -0.04 l0 0.12 c0 0.12 0.04 0.28 0.4 0.28 c0.08 0 0.2 0 0.32 -0.04 l0 -0.08 l-0.32 -0.36 c-0.04 0.08 -0.08 0.16 -0.16 0.2 c-0.04 0 -0.16 -0.04 -0.24 -0.12 l0 0.04 z M208.024 39.76 l0.04 0.08 c0.04 -0.04 0.04 -0.04 0.04 -0.16 z M206.464 39.68 c-0.12 0 -0.16 0 -0.2 0.08 l0.2 0 l0 -0.08 z M195.224 39.24 c0.08 0 0.24 0.08 0.28 0.08 c0.36 0 0.24 0 0.36 -0.08 c-0.08 0 -0.36 -0.08 -0.4 -0.08 c-0.16 0 -0.16 0 -0.24 0.08 z M217.184 39.24 c0.04 0.12 0.16 0.08 0.24 0.08 c-0.04 -0.08 -0.12 -0.08 -0.24 -0.08 z M198.304 39.24 c0 -0.04 -0.04 -0.04 -0.08 -0.04 s-0.08 0 -0.08 0.04 s0.04 0.08 0.08 0.08 s0.08 -0.04 0.08 -0.08 z M194.064 39.12 l0 0.04 l0.4 0 c-0.08 -0.04 -0.32 -0.04 -0.4 -0.04 z M197.744 33.8 l-0.04 -0.04 c-0.04 0 -0.04 0.04 -0.04 0.04 c0 0.04 0 0.08 0.04 0.08 c0 0 0.04 -0.04 0.04 -0.08 z M197.664 32.08 l0 0.16 c0.04 0 0.04 -0.04 0.04 -0.08 s0 -0.08 -0.04 -0.08 z M197.744 31.84 c0.04 0.08 0.12 0.08 0.24 0.08 c0 -0.08 0.04 -0.32 -0.08 -0.4 c0 0.08 -0.16 0.2 -0.16 0.32 z M197.98399999999998 31.08 c0 0.04 0 0.08 0.04 0.12 l0.04 -0.12 l-0.08 0 z M217.98399999999998 31.08 c-0.04 0 -0.08 0.04 -0.08 0.08 c0 0 0.04 0.04 0.08 0.04 s0.04 -0.04 0.04 -0.04 c0 -0.04 0 -0.08 -0.04 -0.08 z M218.184 31 c-0.04 0 -0.04 0.04 -0.04 0.08 c0 0 0 0.04 0.04 0.04 l0 -0.12 z M197.744 24.96 c-0.04 0 -0.08 0.04 -0.08 0.08 c0 0 0.04 0.04 0.08 0.04 s0.04 -0.04 0.04 -0.04 c0 -0.04 0 -0.08 -0.04 -0.08 z M198.024 24.96 c0 -0.04 0 -0.04 -0.04 -0.04 l0 0.08 c0.04 0 0.04 0 0.04 -0.04 z M197.744 23.2 l-0.04 -0.04 c-0.04 0 -0.04 0.04 -0.04 0.04 c0 0.04 0 0.08 0.04 0.08 c0 0 0.04 -0.04 0.04 -0.08 z M210.504 19.84 c0 -0.04 -0.04 -0.04 -0.08 -0.04 c0 0 -0.04 0 -0.04 0.04 s0.04 0.08 0.04 0.08 c0.04 0 0.08 -0.04 0.08 -0.08 z M216.184 17.92 c-0.04 0 -0.08 0.04 -0.08 0.08 c0 0 0.04 0.04 0.08 0.04 s0.04 -0.04 0.04 -0.04 c0 -0.04 0 -0.08 -0.04 -0.08 z M202.26399999999998 15.920000000000002 c-0.04 0.04 -0.04 0.12 -0.04 0.16 l0.44 0 c-0.04 -0.08 -0.2 -0.16 -0.4 -0.16 z M197.664 14.36 l0 0.16 c0.04 0 0.04 -0.04 0.04 -0.08 s0 -0.08 -0.04 -0.08 z M197.664 12.32 l0 0.16 c0.04 0 0.04 -0.04 0.04 -0.08 s0 -0.08 -0.04 -0.08 z M216.584 10.84 l0 0.4 l0.04 -0.2 c0 -0.08 0 -0.12 -0.04 -0.2 z M196.26399999999998 11.079999999999998 c-0.04 0 -0.04 0.04 -0.04 0.08 s0 0.08 0.04 0.08 s0.04 -0.04 0.04 -0.08 s0 -0.08 -0.04 -0.08 z M199.624 11.16 c0 -0.04 -0.04 -0.04 -0.04 -0.04 c-0.04 0 -0.04 0 -0.04 0.04 s0 0.08 0.04 0.08 c0 0 0.04 -0.04 0.04 -0.08 z M195.144 10.760000000000002 c-0.36 0 -0.16 0.28 -0.28 0.32 c0.24 0 0.28 -0.04 0.28 -0.12 c0 -0.04 -0.04 -0.08 -0.04 -0.12 s0.04 -0.04 0.04 -0.08 z M196.10399999999998 10.96 l0.12 0.08 l0.04 -0.08 l-0.08 -0.04 z M194.344 10.84 c-0.04 0 -0.04 0.04 -0.04 0.08 c0 0 0 0.04 0.04 0.04 s0.04 -0.04 0.04 -0.04 c0 -0.04 0 -0.08 -0.04 -0.08 z M194.744 10.68 l-0.28 0.08 l0.28 0 l0 -0.08 z M198.304 10.68 c-0.04 0 -0.08 0.04 -0.08 0.04 c0 0.04 0.04 0.04 0.08 0.04 c0 0 0.04 0 0.04 -0.04 z M202.344 10.68 l0 0.08 l0.04 0 z M194.944 10.68 l-0.08 0 c0 0.04 0 0.08 0.04 0.08 c0 0 0.04 -0.04 0.04 -0.08 z M195.864 10.64 c-0.08 0 -0.08 0.08 -0.08 0.08 c0.04 0 0.04 -0.04 0.08 -0.08 z M197.584 10.68 l-0.08 0 c0 0.04 0 0.08 0.04 0.08 c0 0 0.04 -0.04 0.04 -0.08 z M204.10399999999998 10.64 c-0.08 0 -0.16 0.04 -0.24 0.04 l0.28 0 z M193.744 10.64 c0 0 0 -0.04 -0.04 -0.04 l0 0.08 c0.04 0 0.04 0 0.04 -0.04 z M205.82399999999998 10.52 c0 0.16 0.04 0.08 0.08 0.12 c0 0 0.04 0 0.08 -0.04 l-0.08 -0.16 z M216.42399999999998 10.120000000000001 l0 0.48 l0.08 0 c0 -0.12 0.04 -0.48 -0.08 -0.48 z M195.384 10.2 c-0.04 0 -0.08 0.04 -0.08 0.04 c0 0.04 0.04 0.04 0.08 0.04 s0.04 0 0.04 -0.04 c0 0 0 -0.04 -0.04 -0.04 z M194.064 10.2 l-0.04 -0.08 z M194.54399999999998 10.04 c-0.08 0.04 -0.12 0.08 -0.12 0.12 l0.04 0.04 l0.08 0 l0 -0.16 z M251.832 38.84 c-0.36 0 -0.56 0.08 -0.8 0.12 c-0.36 0 -0.28 0 -0.32 -0.04 l-0.12 0.04 c0 0.12 0.04 0.12 0.12 0.16 c0 -0.04 -0.12 0.08 -0.2 0.24 l0.04 0 c0 0.04 -1.28 1.04 -1.48 1.04 c-0.92 0 -0.92 -1.08 -0.92 -1.24 c0 -0.08 0 -0.08 0.04 -0.2 c0 -4.48 -0.2 -3.8 -0.2 -6.48 c0 0 0.04 -0.04 0.04 -0.08 c0 -0.12 -0.08 -0.32 -0.08 -0.52 c0 -0.36 0.16 -0.6 1.2 -0.6 c0.12 0 0.28 0.12 0.64 0.76 c0 0.2 0.72 0.8 0.8 1.16 c-0.04 0.04 -0.08 0.08 -0.08 0.12 c0 0.16 0.6 0.4 0.6 0.64 c0 0.04 -0.04 0.08 -0.04 0.08 c0 0.24 0.4 0.44 0.4 0.56 c0.48 0.88 0.52 0.84 1.16 1.48 c0.2 0 1.68 2.64 2.8 2.64 c1.44 0.12 1.72 0.64 3.24 0.64 c0.84 0 0.72 -0.04 1 -0.2 c-0.08 0.08 -0.04 0.08 -0.08 0.08 c0 0 0.28 -0.4 1.6 -0.4 c0.6 0 1.76 -1.12 2 -1.28 c0.08 -0.08 0.48 -0.24 0.48 -0.32 c0 -0.24 0.84 -1.4 0.96 -1.52 c-0.04 -0.08 -0.04 -0.16 -0.04 -0.2 c0 -0.6 0.64 0.32 0.64 -3.4 c-0.04 -0.12 -0.16 -1.4 -0.44 -1.64 c-0.12 0 -0.12 -0.92 -1.08 -1.56 c0 -0.04 0.04 -0.24 0.04 -0.32 c-1.56 -0.08 -0.76 -0.88 -1.8 -0.88 c-1.96 0 -0.4 -0.6 -2.52 -0.6 c-0.2 -0.2 -1.96 -0.16 -2.36 -0.4 c-0.08 0 -0.36 0.08 -0.44 0.08 c-0.48 0 -0.08 -0.4 -1.16 -0.4 c-3.64 -0.2 -1.68 -0.88 -2.92 -0.88 l0 -0.08 c0.12 0 0.28 -0.04 0.4 0.08 c0 0 0.2 -0.08 0.2 -0.12 c0 0 -0.08 -0.08 -0.08 -0.12 l-1.24 0 c-0.4 -0.36 -0.36 -0.6 -0.68 -0.68 c0 -0.04 -0.44 0.04 -1.12 -0.88 c0 -0.28 -0.88 -1.32 -1.08 -1.48 c-0.36 -1.88 -0.8 -3 -0.8 -4.44 c0.08 -0.44 0 -1 0.16 -1.28 l0 0.04 c0.04 0 0.2 -1.36 0.32 -1.28 c-0.04 0 -0.08 -0.04 -0.08 -0.08 c0 -0.32 0.84 -1.2 0.84 -1.52 c-0.04 -0.04 -0.04 -0.08 -0.04 -0.08 c0 -0.28 0.64 -0.56 0.64 -0.68 s0.52 -0.96 0.76 -1.12 c-0.04 0.04 -0.04 0.08 -0.04 0.08 c-0.04 0 1.96 -1.32 2 -1.36 c2.44 -0.4 0.32 -1.08 3.04 -1.08 l3.92 0 c0.08 0 0.92 0 1.32 0.32 c1.64 0.08 1.36 1.04 2.08 1.04 c1.32 0 0.96 -0.08 1.36 -0.48 c-0.16 -0.2 1.08 -0.04 1.2 -0.56 l0.52 0 c0.08 0 0.4 0.32 0.44 0.4 c0.12 4.96 0.36 4.84 0.36 7.44 c0 0.2 -0.36 0.32 -0.52 0.64 l-0.56 0 l0 -0.16 c-0.12 0 -0.96 -0.56 -0.96 -1 l0 0.04 c-0.04 0 -0.32 -1 -0.76 -1.16 l0.04 0 c0 -0.12 -0.52 -0.52 -0.52 -0.8 c-0.6 -0.88 -0.52 -0.84 -1 -1.32 l0.04 0 c0 -0.04 -1 -0.64 -1 -0.92 c0 -0.6 -1.48 -1.32 -1.8 -1.64 c0.12 -0.24 -1.04 -0.56 -2.2 -0.56 c-0.04 0 -0.08 0.04 -0.12 0.04 c-0.4 0 -0.24 -0.68 -0.36 -0.68 c-0.08 0.08 -0.12 0.08 -0.16 0.16 c-0.04 0 -0.2 -0.04 -0.32 -0.08 c-0.24 0.88 -0.64 0.4 -0.76 0.64 c-0.24 -0.12 -0.08 -0.24 -0.24 -0.28 c-0.84 0.4 -0.6 0.36 -2.44 1.28 c-1.2 2.36 -0.56 -0.56 -1.88 3.04 l0 1.76 l0 -0.04 c0.04 0 0.2 1.56 0.56 1.76 c0.08 0.12 0.6 0.52 0.76 0.84 c0.28 0 0.64 1.04 1.8 1.04 c0.48 0.52 2.36 0.4 4.28 0.88 c0.56 0.16 3.48 0.16 4.16 0.96 l-0.04 0 c0 0.08 0.96 0.16 1.12 0.28 c0 -0.08 1.92 1.12 1.92 1.36 c0 0.04 0 0.04 -0.04 0.04 c0.68 0 1.36 1.52 1.64 1.72 c0.2 1.44 0.76 1 0.76 2.12 c0.48 1.52 0.4 1.88 0.4 3.76 c-0.12 0.12 -0.2 1.52 -0.4 1.6 c0 2.04 -1.04 1.92 -1.04 2.8 l-0.52 0.48 c0 0.08 -0.04 0.24 -0.04 0.24 c-0.8 0.72 -0.52 0.84 -0.88 1 c-0.12 0 -0.32 0.6 -1 0.8 c-0.76 1.16 -1.08 0.24 -1.88 1.4 c-3.6 0 0.08 0.88 -3.92 0.88 c-4.56 0 -2.96 -0.12 -4.44 -0.48 c-0.04 0 -0.04 0.04 -0.08 0.04 c-0.24 0 -0.6 -0.32 -0.92 -0.32 c0 -0.04 -0.6 -0.12 -0.6 -0.2 c0 0.04 0.04 0.04 0.04 0.04 c0 -0.04 -0.56 -0.84 -1 -0.84 c-0.08 0 -0.16 0.04 -0.24 0.08 z M259.432 40.28 c-0.04 0 -0.04 0.04 -0.04 0.08 c0 0 0 0.04 0.04 0.04 s0.04 -0.04 0.04 -0.04 c0 -0.04 0 -0.08 -0.04 -0.08 z M256.432 40.2 c-0.04 0 -0.04 0.04 -0.04 0.04 c0 0.04 0 0.04 0.04 0.04 s0.04 0 0.04 -0.04 c0 0 0 -0.04 -0.04 -0.04 z M260.23199999999997 40.2 c-0.04 0 -0.08 0.04 -0.08 0.08 s0.04 0.08 0.08 0.08 s0.04 -0.04 0.04 -0.08 s0 -0.08 -0.04 -0.08 z M259.352 40.12 c-0.04 0 -0.08 0.04 -0.08 0.08 s0.04 0.08 0.08 0.08 s0.04 -0.04 0.04 -0.08 s0 -0.08 -0.04 -0.08 z M260.23199999999997 40.04 c-0.08 0 -0.12 0 -0.12 0.04 l0.04 0.04 l0.08 0 l0 -0.08 z M257.312 40.04 c-0.04 0 -0.04 0 -0.04 0.04 c0 0 0 0.04 0.04 0.04 s0.04 -0.04 0.04 -0.04 c0 -0.04 0 -0.04 -0.04 -0.04 z M260.23199999999997 39.76 l0 0.2 c0.08 -0.04 0.16 -0.12 0.2 -0.2 l-0.2 0 z M261.312 39.64 c-0.36 0 -0.36 0.12 -0.36 0.24 c0.04 0 0.12 -0.04 0.2 -0.08 c0.04 0 0.16 0.04 0.24 0.08 l0.16 -0.08 s0 -0.16 -0.24 -0.16 z M256.552 39.68 l0 0.08 l0.16 0 l0 -0.08 l-0.16 0 z M258.552 39.68 c-0.04 0 -0.04 0.04 -0.04 0.08 c0 0 0 0.04 0.04 0.04 s0.04 -0.04 0.04 -0.04 c0 -0.04 0 -0.08 -0.04 -0.08 z M259.672 39.68 c-0.04 0 -0.08 0.04 -0.08 0.08 c0 0 0.04 0.04 0.08 0.04 s0.04 -0.04 0.04 -0.04 c0 -0.04 0 -0.08 -0.04 -0.08 z M255.992 39.44 c-0.04 0 -0.08 0 -0.08 0.04 l0.08 0 l0.04 0 c0 -0.04 0 -0.04 -0.04 -0.04 z M254.752 39.32 c-0.04 0 -0.08 0 -0.12 0.04 z M254.632 39.16 c-0.04 0 -0.08 0.04 -0.08 0.08 s0.04 0.08 0.08 0.08 s0.04 -0.04 0.04 -0.08 s0 -0.08 -0.04 -0.08 z M254.752 39.12 c-0.04 0 -0.04 0.04 -0.04 0.08 c0 0 0 0.04 0.04 0.04 s0.04 -0.04 0.04 -0.04 c0 -0.04 0 -0.08 -0.04 -0.08 z M249.032 39.04 c-0.04 0 -0.08 0.04 -0.08 0.08 c0 0 0.04 0.04 0.08 0.04 l0.04 -0.04 c0 -0.04 -0.04 -0.08 -0.04 -0.08 z M254.632 39.04 c-0.04 0 -0.08 0.04 -0.08 0.08 c0 0 0.04 0.04 0.08 0.04 s0.04 -0.04 0.04 -0.04 c0 -0.04 0 -0.08 -0.04 -0.08 z M248.472 38.92 c-0.04 0 -0.08 0.04 -0.08 0.04 c0 0.04 0.04 0.08 0.08 0.08 c0 0 0.04 -0.04 0.04 -0.08 z M254.952 38.96 l-0.08 0 c0 0.04 0 0.08 0.04 0.08 c0 0 0.04 -0.04 0.04 -0.08 z M262.792 38.92 c-0.04 0 -0.04 0.04 -0.04 0.04 l0.08 0 c0 0.04 0 -0.04 -0.04 -0.04 z M248.472 38.24 l0 -0.16 l0 0.16 z M264.632 38.16 c-0.04 0 -0.08 0.04 -0.08 0.08 l0.12 0 c0 -0.04 -0.04 -0.08 -0.04 -0.08 z M265.192 37.68 l0 0.08 l0.04 0 z M265.072 37.56 c-0.04 0 -0.08 0.04 -0.08 0.08 c0 0 0.04 0.04 0.08 0.04 s0.04 -0.04 0.04 -0.04 c0 -0.04 0 -0.08 -0.04 -0.08 z M265.312 37.6 l0.08 -0.04 z M265.552 37.36 l0 0 l-0.08 0.08 c0.04 -0.04 0.04 -0.08 0.08 -0.08 z M248.59199999999998 37.32 c-0.04 0 -0.08 0 -0.08 0.04 c0 0 0.08 0 0.08 -0.04 l0 0 z M248.472 36.92 l0 0.24 l0.04 0 c0 -0.04 0 -0.2 -0.04 -0.24 z M266.792 36.04 c-0.04 0 -0.04 0.04 -0.04 0.04 s0 0.04 0.04 0.04 s0.04 -0.04 0.04 -0.04 s0 -0.04 -0.04 -0.04 z M265.552 32.76 l0.08 0.04 l0.08 -0.04 l-0.16 0 z M248.472 32.12 l-0.08 0 c0 0.04 0 0.08 0.04 0.08 c0 0 0.04 -0.04 0.04 -0.08 z M268.392 31.439999999999998 l0 -0.04 c-0.04 0 -0.04 0 -0.04 0.04 s0 0.08 0.04 0.08 l0 -0.08 z M251.59199999999998 24.68 c-0.04 0 -0.08 0.04 -0.08 0.08 s0.04 0.08 0.08 0.08 s0.04 -0.04 0.04 -0.08 s0 -0.08 -0.04 -0.08 z M249.952 22.96 c-0.04 0 -0.08 0.04 -0.08 0.08 c0 0 0.04 0.04 0.08 0.04 l0.04 -0.04 c0 -0.04 -0.04 -0.08 -0.04 -0.08 z M262.792 22.56 c-0.04 0 -0.04 0.04 -0.04 0.08 c0 0 0 0.04 0.04 0.04 s0.04 -0.04 0.04 -0.04 c0 -0.04 0 -0.08 -0.04 -0.08 z M249.472 22.4 l0 0.08 l0.08 -0.08 l-0.08 0 z M253.272 22.04 c0 0 -0.04 0 -0.04 0.04 l0.08 0 c0 -0.04 -0.04 -0.04 -0.04 -0.04 z M257.23199999999997 21.52 c-0.08 0 -0.28 0.08 -0.28 0.12 s0.04 0.04 0.04 0.04 c0.08 0 0.16 -0.08 0.24 -0.16 z M248.712 20.36 c-0.04 0 -0.08 -0.04 -0.08 0.2 c0 0.04 0.04 0.12 0.04 0.12 c0.04 0 0.08 -0.08 0.08 -0.12 c0 -0.08 -0.04 -0.16 -0.04 -0.2 z M248.59199999999998 19.96 c-0.04 0 -0.08 0.04 -0.08 0.08 s0.04 0.08 0.08 0.08 l0 -0.16 z M265.712 12.920000000000002 c-0.04 0 -0.08 0.04 -0.08 0.08 c0 0 0.04 0.04 0.08 0.04 s0.04 -0.04 0.04 -0.04 c0 -0.04 0 -0.08 -0.04 -0.08 z M266.272 12.920000000000002 c-0.04 0 -0.04 0.04 -0.04 0.08 c0 0 0 0.04 0.04 0.04 s0.04 -0.04 0.04 -0.04 c0 -0.04 0 -0.08 -0.04 -0.08 z M266.432 12.920000000000002 c-0.04 0 -0.08 0.04 -0.08 0.08 c0 0 0.04 0.04 0.08 0.04 l0.04 -0.04 c0 -0.04 -0.04 -0.08 -0.04 -0.08 z M257.472 12.04 l0 -0.44 c0.04 -0.04 0.12 -0.08 0.16 -0.12 l0.08 0.08 c0 0.12 -0.16 0.32 -0.16 0.56 z M266.272 11.879999999999999 c-0.04 0 -0.04 0.04 -0.04 0.08 c0 0 0 0.04 0.04 0.04 s0.04 -0.04 0.04 -0.04 c0 -0.04 0 -0.08 -0.04 -0.08 z M253.152 11.68 c-0.2 0.04 -0.2 0.2 -0.2 0.2 c0.04 -0.04 0.2 -0.12 0.2 -0.16 l0 -0.04 z M252.192 11.48 c0 0.08 0.12 0.12 0.2 0.12 c-0.04 -0.12 -0.2 -0.12 -0.24 -0.12 l0.04 0 z M266.112 11.559999999999999 c0.04 0.04 0.08 0.04 0.12 0.04 c0.16 0 0.2 -0.12 0.2 -0.24 z M252.832 11.239999999999998 c-0.12 0 -0.08 0.12 -0.08 0.24 l0.08 0 l0 -0.24 z M260.752 10.879999999999999 c-0.12 0.2 -0.08 0.36 -0.08 0.52 c0.16 -0.04 0.2 -0.24 0.2 -0.44 c-0.04 -0.04 -0.04 -0.08 -0.12 -0.08 z M252.832 11.04 c-0.04 0 -0.08 0 -0.08 0.04 l0.08 0 l0.04 0 c0 -0.04 0 -0.04 -0.04 -0.04 z M265.712 10.96 c0 -0.04 -0.04 -0.04 -0.12 -0.04 c-0.04 0 -0.08 0 -0.08 0.04 s0.04 0.08 0.08 0.08 c0.08 0 0.12 -0.04 0.12 -0.08 z M265.872 10.84 c-0.04 0 -0.08 0.04 -0.08 0.04 l0.04 0 l0.04 0 l0 -0.04 z M261.912 10.84 l-0.04 -0.04 z M259.432 10.8 c0 -0.04 -0.04 -0.04 -0.04 -0.04 s-0.04 0 -0.04 0.04 s0.04 0.04 0.04 0.04 s0.04 0 0.04 -0.04 z M264.872 10.8 c0 -0.04 -0.04 -0.04 -0.04 -0.04 c-0.04 0 -0.04 0 -0.04 0.04 s0 0.04 0.04 0.04 c0 0 0.04 0 0.04 -0.04 z M265.392 10.719999999999999 c-0.04 0 -0.08 0.04 -0.08 0.08 c0 0 0.04 0.04 0.08 0.04 s0.04 -0.04 0.04 -0.04 c0 -0.04 0 -0.08 -0.04 -0.08 z M266.272 10.64 l0 0.16 l0.08 -0.08 z M254.112 10.32 c0 0.12 0.08 0.28 0.08 0.4 l0.08 -0.2 s-0.04 -0.16 -0.08 -0.28 z M261.152 10.48 c-0.04 0 -0.08 0.04 -0.08 0.04 s0.04 0.04 0.08 0.04 s0.04 -0.04 0.04 -0.04 s0 -0.04 -0.04 -0.04 z M265.512 10.239999999999998 c-0.12 0.04 -0.16 0.16 -0.2 0.28 c0.24 0 0.2 -0.12 0.2 -0.28 z M266.272 10.48 l0 0.04 l0.08 0 z M266.272 10.239999999999998 c-0.04 0 -0.04 0.04 -0.04 0.04 c0 0.04 0 0.04 0.04 0.04 s0.04 0 0.04 -0.04 c0 0 0 -0.04 -0.04 -0.04 z M257.912 10.079999999999998 c-0.04 0.12 0.2 0.16 0.2 0.16 c0.08 -0.12 0.48 0.04 0.44 -0.16 l-0.64 0 z M260.432 10.16 l-0.08 0 c0 0.04 0 0.08 0.04 0.08 c0 0 0.04 -0.04 0.04 -0.08 z M255.672 10 l0 0.08 l0.16 0 l0 -0.08 l-0.16 0 z M256.432 9.920000000000002 c-0.12 0 -0.28 0.12 -0.32 0.16 l0.32 0 l0 -0.16 z M259.432 10 l0 0.08 l0.24 0 z M282.116 40.2 c0 -0.08 0 -0.16 0.04 -0.24 c0 -0.08 -0.04 -0.16 -0.08 -0.16 c0 0.16 -0.2 0.32 -0.24 0.32 c-0.16 -0.16 -0.36 -0.32 -0.44 -0.52 c0 -1.32 3.64 -0.36 4.28 -1.04 l-0.08 -3.76 l0 -9.56 l0.08 -0.08 c0 -1.48 -0.16 -2.68 -0.16 -4 c0 -2.04 0.16 -5.4 0.16 -6.68 c0 -1.84 -0.04 -2.6 -0.52 -3.28 l-0.48 0 l0 0.16 c-2.32 0 -1.84 0.36 -2.76 0.76 c0.08 0 -1 0.12 -1 0.64 l0.04 0.04 c0 0.08 -0.92 0.08 -0.92 0.68 c-0.92 0 -1.92 2.52 -2.36 2.96 c0 0.36 -0.84 1.24 -0.84 2.04 l0 -0.04 s-0.04 1.52 -0.84 1.52 c-0.64 0 -0.88 0.04 -1.04 -0.44 c0 -3.16 0.48 -1.88 0.48 -9.12 c9.64 -0.48 19 -0.52 23.68 -0.52 c0.68 0 1.28 0.04 1.76 0.04 c0.2 0 0.76 -0.2 0.76 1.2 c0 0.32 0 0.24 -0.08 0.36 c0.16 0.76 -0.04 2.04 0.28 2.84 c-0.04 0.04 -0.12 0.4 -0.12 0.6 c0 0.64 0.36 2.4 0.36 3.88 c0 1 -0.32 1.04 -0.96 1.04 c-0.44 0 -1.28 -2.2 -1.48 -2.84 c0.36 0.04 -0.44 -0.04 -0.44 -0.8 c-0.92 -1.24 -0.6 -1.2 -1.36 -1.96 c-0.64 -1.28 -0.92 -0.8 -1.48 -1.4 l0 0.04 c0.04 0 -0.32 -0.76 -1.08 -0.76 c-0.04 -0.36 -0.48 -0.16 -0.64 -0.52 c-1.44 -0.08 -1.32 -0.48 -1.76 -0.48 l-0.12 0.04 c-0.84 0 -0.56 0 -0.8 -0.04 c-0.08 0 -0.16 0.04 -0.16 0.04 c0 0.04 0.04 0.08 0.04 0.08 c0 0.2 -0.44 0.08 -0.44 1 c0 1.48 0.12 5.16 0.12 9.24 l0 7.6 c0 0.08 -0.08 0.44 -0.08 0.48 c0 -0.04 0 0.2 0.08 0.32 c0 0.2 0.08 3.44 0.08 3.96 c0 1.04 -0.08 2.24 -0.08 3.04 c0 0.88 0.04 1.8 0.32 1.92 c1.96 0 2 -0.08 2.92 -0.08 c0.24 0 0.76 0.08 0.76 0.8 c0 0.28 -0.32 0.52 -0.56 0.68 c-0.36 0 -1.2 -0.32 -1.72 -0.32 c-0.24 0 -0.4 0.12 -0.56 0.12 c-0.32 -0.04 -0.64 -0.12 -0.88 -0.12 l-0.08 0.08 c-0.36 0 -0.8 0.12 -1 0.12 c-0.08 0 -0.2 -0.08 -0.32 -0.08 c-0.04 0 -0.16 0.04 -0.32 0.12 c-0.4 0 -0.84 0 -0.88 -0.12 l-2.08 0 s-0.08 0.12 -0.16 0.12 c0.16 -0.04 -0.24 0.12 -0.24 -0.12 c-0.32 0 -0.56 0.16 -0.96 0.16 c-0.28 0 -0.48 -0.04 -0.6 -0.2 l0.12 -0.08 l-0.68 0 c0 0.16 0 0.32 -0.08 0.4 l-0.08 -0.16 c-0.16 0 -0.16 0.2 -0.28 0.2 c-0.16 0 -0.4 -0.24 -0.44 -0.24 l0.16 -0.12 c0 -0.12 0 -0.16 -0.08 -0.2 l0 0.04 c-0.04 0 -0.08 -0.04 -0.16 -0.04 s-0.2 0.04 -0.24 0.2 l0.08 0.24 l-0.08 0.08 l-1.24 0 z M281.916 39.88 c-0.04 0 -0.08 0.04 -0.08 0.04 c0 0.04 0.04 0.04 0.08 0.04 s0.04 0 0.04 -0.04 c0 0 0 -0.04 -0.04 -0.04 z M285.476 39.8 c-0.04 0 -0.08 0.04 -0.08 0.08 s0.04 0.08 0.08 0.08 c0 0 0.04 -0.04 0.04 -0.08 s-0.04 -0.08 -0.04 -0.08 z M281.796 39.76 l0 0.04 l0.04 0 z M286.636 39.76 l-0.08 0.04 l0.16 0 z M286.236 39.76 c0 -0.04 -0.04 -0.04 -0.08 -0.04 s-0.08 0 -0.08 0.04 s0.04 0.04 0.08 0.04 s0.08 0 0.08 -0.04 z M287.116 39.76 l0 -0.04 c-0.04 0 -0.04 0 -0.04 0.04 s0 0.04 0.04 0.04 l0 -0.04 z M287.396 39.6 c-0.04 0 -0.08 0.04 -0.08 0.08 s0.04 0.08 0.08 0.08 s0.04 -0.04 0.04 -0.08 s0 -0.08 -0.04 -0.08 z M291.836 39.6 l0 0.08 l0.2 0 c-0.04 -0.08 -0.12 -0.08 -0.2 -0.08 z M293.916 39.6 l-0.08 0.08 l0.08 0 l0 -0.08 z M294.31600000000003 39.56 c-0.08 0 -0.08 0.08 -0.08 0.12 l0.08 0 l0 -0.12 z M281.716 39.36 c0 0.08 0 0.16 0.12 0.16 s0.24 -0.04 0.24 -0.08 c0 -0.28 -0.04 -0.2 -0.24 -0.32 c-0.12 0.08 -0.12 0.08 -0.12 0.24 z M283.036 39.36 c-0.08 0.04 -0.2 0.08 -0.2 0.12 s0.08 0.04 0.12 0.04 c0.08 0 0.12 0 0.12 -0.08 z M283.796 39.28 c-0.12 0.08 -0.08 0.16 -0.08 0.24 l0.4 0 c-0.08 -0.12 -0.28 -0.12 -0.32 -0.24 z M285.156 39.52 c0 -0.04 -0.04 -0.04 -0.08 -0.04 s-0.08 0 -0.08 0.04 s0.04 0.04 0.08 0.04 s0.08 0 0.08 -0.04 z M293.596 39.52 l0.04 -0.08 z M286.036 38 c0 0 -0.04 0.04 -0.04 0.08 s0.04 0.08 0.04 0.08 s0.04 -0.04 0.04 -0.08 s-0.04 -0.08 -0.04 -0.08 z M291.396 31.119999999999997 c-0.04 0 -0.08 0.04 -0.08 0.08 s0.04 0.08 0.08 0.08 s0.04 -0.04 0.04 -0.08 s0 -0.08 -0.04 -0.08 z M285.916 24.28 c-0.04 0 -0.08 0.04 -0.08 0.08 s0.04 0.08 0.08 0.08 s0.04 -0.04 0.04 -0.08 s0 -0.08 -0.04 -0.08 z M276.196 19.6 c-0.04 0 -0.08 0.04 -0.08 0.08 c0 0 0.04 0.04 0.08 0.04 s0.04 -0.04 0.04 -0.04 c0 -0.04 0 -0.08 -0.04 -0.08 z M301.636 19.2 c-0.32 0.04 -0.32 0.4 -0.32 0.48 c0.24 -0.24 0.32 -0.24 0.32 -0.48 z M276.31600000000003 19.08 l0 0.28 c0.04 -0.04 0.04 -0.2 0.04 -0.28 l-0.04 0 z M300.596 19.04 l0 0.04 l0.16 0 z M301.636 18.24 l0 0.08 l0.04 0 z M275.596 15.68 c0 0 -0.04 0.08 -0.04 0.16 l0.04 0.08 c0.04 0 0.04 -0.08 0.04 -0.12 s0 -0.08 -0.04 -0.12 z M301.156 15.8 l-0.04 0.04 c0 0.04 0.04 0.08 0.04 0.08 c0.04 0 0.04 -0.04 0.04 -0.08 c0 0 0 -0.04 -0.04 -0.04 z M275.596 15.48 c0 0 -0.04 0 -0.04 0.04 s0.04 0.08 0.04 0.08 c0.04 0 0.04 -0.04 0.04 -0.08 s0 -0.04 -0.04 -0.04 z M275.716 12.2 c-0.08 0.04 -0.12 0.08 -0.16 0.16 c0.16 0 0.16 -0.04 0.16 -0.16 z M280.436 11.879999999999999 c-0.04 0 -0.08 0 -0.08 0.04 s0.04 0.08 0.08 0.08 s0.04 -0.04 0.04 -0.08 s0 -0.04 -0.04 -0.04 z M280.596 11.48 c0 0 -0.04 0 0.08 0.12 c0.04 -0.04 0.08 -0.08 0.08 -0.12 l-0.16 0 z M281.796 11.280000000000001 c-0.04 0 -0.08 0.04 -0.08 0.08 s0.04 0.08 0.08 0.08 c0 0 0.04 -0.04 0.04 -0.08 s-0.04 -0.08 -0.04 -0.08 z M283.716 10.96 c0 0.04 -0.12 0.2 -0.2 0.24 l0.28 0 c0 -0.08 0.04 -0.16 -0.08 -0.24 z M285.396 10.96 l0 0.08 l0.08 -0.08 l-0.08 0 z M280.436 10.8 c-0.04 0 -0.08 0.04 -0.08 0.08 s0.04 0.08 0.08 0.08 s0.04 -0.04 0.04 -0.08 s0 -0.08 -0.04 -0.08 z M280.636 10.8 c-0.04 0.04 -0.04 0.04 -0.04 0.08 c0 -0.04 0.04 -0.08 0.04 -0.08 z M281.676 10.719999999999999 l0 0.16 l0.04 -0.08 z M282.716 10.8 c-0.04 0 -0.08 0.04 -0.08 0.04 c0 0.04 0.04 0.04 0.08 0.04 c0 0 0.04 0 0.04 -0.04 z M295.396 10.8 l0 0.08 s0.16 0.08 0.16 -0.08 l-0.16 0 z M275.596 10.8 l0.12 0 l-0.04 0 c0.12 0 0.28 -0.08 0.36 -0.08 c0 0.04 -0.08 -0.28 -0.16 -0.32 c-0.2 0 -0.2 0.28 -0.28 0.4 z M277.076 10.719999999999999 c-0.04 0 -0.04 0.04 -0.04 0.08 l0.08 0 c0 -0.04 0 -0.08 -0.04 -0.08 z M294.396 10.719999999999999 c0.08 0.08 0.16 0.08 0.24 0.08 c-0.04 -0.08 -0.12 -0.08 -0.24 -0.08 z M295.876 10.559999999999999 c-0.04 0 -0.04 0.04 -0.04 0.08 s0 0.08 0.04 0.08 s0.04 -0.04 0.04 -0.08 s0 -0.08 -0.04 -0.08 z M300.996 10.239999999999998 l0.08 0.08 l0 -0.08 l-0.08 0 z M317.28 38.92 l0.08 -0.08 c0 -0.04 0 -0.04 -0.08 -0.08 l0 0 l-0.04 0 c-0.04 0 -0.08 0 -0.12 0.08 l0 -0.04 s-0.04 0.08 -0.2 0.08 s-0.4 -0.04 -0.72 -0.28 c0 0.04 -0.04 0.04 -0.04 0.04 c-0.08 0 -0.4 -0.44 -0.52 -0.44 c-0.2 0 -0.76 -0.16 -3.24 -2.64 l0 -0.16 c-0.48 -0.24 -1 -0.92 -1.16 -1.24 c-0.08 -1.56 -1.24 -0.44 -1.24 -2.4 c-0.04 0 -0.12 0.08 -0.12 0.08 c0.04 0 0.04 0 0.04 -0.04 c0 -0.12 -0.96 -0.84 -0.96 -1.68 c-0.24 -1.8 -0.4 -1.08 -0.4 -2.32 l-0.08 -0.08 c0 -0.4 -0.12 -1.24 -0.32 -1.6 l0.04 -2.88 l0.12 -1.64 c0.04 -0.52 0.36 -0.76 0.4 -2.36 l0 0.04 c0.04 0 0.36 -1.4 0.64 -1.68 l-0.04 0.04 c-0.04 0 0.8 -1.08 0.8 -1.36 c0 -0.32 1.04 -0.88 1.04 -1.64 c0.4 -0.36 0 -0.16 1.72 -1.84 c0.44 0 0.28 -0.72 0.72 -0.72 l-0.04 -0.08 c0.12 0 0.4 -0.24 0.84 -0.68 c1.28 -0.84 -0.8 0.08 3.4 -1.88 c0 0 0.04 0.04 0.08 0.04 c0.44 0 1.36 -0.6 2 -0.6 c0.88 0 3.6 -0.16 3.96 -0.16 c1.4 0 1.8 0.52 2.2 0.52 c1.48 0.12 1.88 1.16 2.44 1.16 c0.04 0 0.04 -0.04 0.16 -0.04 c0.16 0 0.52 0.16 1.48 1.12 c0 0.28 0.48 0.28 0.64 0.52 l-0.08 0.08 c0.2 0.08 0.96 0.64 1.28 1.28 c0 0.12 0.72 0.36 0.72 0.76 c-0.04 0 -0.04 0 -0.04 0.04 c0 0.12 1 0.8 1 1.24 c-0.04 0 -0.08 0 -0.08 0.04 c0 0.12 0.8 0.6 0.8 1.2 c0.12 1.08 1.04 1.4 1.04 2.32 c-0.04 0.04 -0.04 0.08 -0.04 0.12 c0 0.32 0.68 0.92 0.68 2.2 c0 1.6 0.32 2.72 0.32 2.96 c0 0.68 -0.4 1.88 -0.4 3.36 c-0.32 1.8 -1.84 5.16 -2.24 5.44 c-0.08 0 -0.48 1 -0.84 1.16 c0 -0.04 -1.4 2.08 -2.32 2.44 c-0.6 0.4 -0.36 0.52 -2.44 1.96 c-0.08 0.12 -0.8 0.04 -1.2 0.4 c-3.44 1.16 -3.36 0.92 -3.6 1.16 l-2.76 0 c-0.12 0 -0.48 -0.2 -0.68 -0.2 c-0.08 0 -1 -0.52 -1.6 -0.52 c-0.8 0 -0.64 -0.48 -1 -0.52 z M322.24 39.76 c0 0 -0.04 0.04 -0.04 0.08 l0.04 0.04 c0.04 0 0.04 -0.04 0.04 -0.04 c0 -0.04 0 -0.08 -0.04 -0.08 z M323.4 39.76 c0 0.04 -0.04 0.04 -0.04 0.04 c0 0.04 0.04 0.04 0.12 0.08 l0.08 -0.12 l-0.16 0 z M323.68 39.68 c-0.04 0 -0.08 0.04 -0.08 0.08 s0.04 0.08 0.08 0.08 l0 -0.16 z M319.47999999999996 39.56 c0 -0.04 -0.04 -0.04 -0.04 -0.04 c-0.04 0 -0.04 0 -0.04 0.04 s0 0.08 0.04 0.08 c0 0 0.04 -0.04 0.04 -0.08 z M319.36 39.44 c-0.04 0 -0.08 0.04 -0.08 0.04 c0 0.04 0.04 0.08 0.08 0.08 l0 -0.12 z M322.24 39.44 l-0.04 0.04 l0.08 0 s0 -0.04 -0.04 -0.04 z M323.32 39.4 c0 0 -0.04 0.04 -0.04 0.08 l0.08 0 c0 -0.04 0 -0.08 -0.04 -0.08 z M320.8 39.32 c-0.04 0 -0.08 0.04 -0.08 0.08 c0 0 0.04 0.04 0.08 0.04 l0 -0.12 z M323.47999999999996 39.32 c-0.04 0 -0.08 0.04 -0.08 0.08 c0 0 0.04 0.04 0.08 0.04 s0.04 -0.04 0.04 -0.04 c0 -0.04 0 -0.08 -0.04 -0.08 z M324.96 39 c-0.04 0 -0.08 0.04 -0.08 0.08 c0 0 0.04 0.04 0.08 0.04 s0.04 -0.04 0.04 -0.04 c0 -0.04 0 -0.08 -0.04 -0.08 z M315.08 32.72 c0.12 0.4 0.28 0.6 0.28 1.12 c0 0.6 0.64 1.12 0.64 1.88 c0.52 0.8 -0.36 -0.08 1.6 1.92 c0.04 0 0.04 -0.04 0.04 -0.04 c0.12 0 0 0.48 0.88 0.48 c-0.04 0 1 0.68 2.36 0.68 l1.56 0 c1.76 0 3.16 -0.12 4.48 -1.44 c-0.04 0 1 -0.76 1.08 -1.16 c0 0.04 0 0.08 0.04 0.08 c0.16 0 0.92 -1.92 0.92 -2.64 c0 -3.56 0.64 -5.68 0.64 -6.24 c0 -0.12 -0.08 -0.52 -0.08 -0.92 c0 -1.24 0.08 -1.68 0.08 -2.2 c0 -0.12 -0.16 -1.32 -0.16 -1.4 c0 0 -0.04 0 -0.04 -0.04 c0 -0.12 0.16 -0.52 0.16 -1.64 c0 -0.12 -0.16 -0.4 -0.16 -1.32 c0 -3.36 -0.6 -4.36 -0.68 -5.64 l-0.04 0.04 c-0.12 0 0.08 -0.76 -0.44 -1.28 c-1.16 -1.16 -1.12 -1.56 -1.32 -1.64 c-0.08 0 -0.56 -0.48 -0.64 -0.48 c0 0.04 0 0.12 -0.04 0.12 c-0.16 0 -1.08 -0.96 -2.08 -0.96 c-0.92 0 -1.6 -0.24 -2.28 -0.24 c-1.48 0 -2.84 1 -3.68 1 c-0.68 0.16 -1.2 0.72 -1.8 1.76 c-0.04 0.08 -0.92 0.72 -0.92 1.92 c0 0.04 0.04 0.04 0.04 0.08 c0 0.16 -0.44 0.4 -0.44 2.04 c-0.08 2.28 -0.4 -0.76 -0.4 5.44 l0 3.8 c0 1.28 0.08 1.96 0.08 4.04 l0.08 0.12 c0 0.56 0.08 1.6 0.24 1.6 l0 1.16 z M327.71999999999997 38.4 l0 0.04 l0.08 0 z M315.32 37.68 c-0.04 0 -0.08 0.04 -0.08 0.04 c0 0.04 0.04 0.04 0.08 0.04 c0 0 0.04 0 0.04 -0.04 z M315.24 37.56 c-0.04 0 -0.08 0.04 -0.08 0.08 s0.04 0.04 0.08 0.04 s0.04 0 0.04 -0.04 s0 -0.08 -0.04 -0.08 z M315.56 36.48 l0 0.08 l0.08 0 l0 -0.08 l-0.08 0 z M312.2 34.92 c0.04 0.04 -0.04 0.08 0.12 0.08 c-0.04 -0.08 -0.12 -0.08 -0.12 -0.08 z M310.59999999999997 32.72 c-0.04 0 -0.08 0.04 -0.08 0.08 s0.04 0.08 0.08 0.08 s0.04 -0.04 0.04 -0.08 s0 -0.08 -0.04 -0.08 z M308.47999999999996 25.08 c0.04 0.04 0.04 0.08 0.08 0.08 l0.04 -0.04 z M331.96 14.32 l0 -0.04 c-0.04 0 -0.04 0 -0.04 0.04 s0 0.04 0.04 0.04 l0 -0.04 z M330.15999999999997 12.239999999999998 c0 0 -0.04 0.04 -0.04 0.08 s0.04 0.08 0.04 0.08 c0.04 0 0.04 -0.04 0.04 -0.08 s0 -0.08 -0.04 -0.08 z M315.56 11.16 c-0.12 0 -0.16 0 -0.24 0.08 l0.24 0 l0 -0.08 z M317.2 10.32 l-0.04 0 c0 0.04 0 0.08 0.04 0.08 l0 -0.08 z M324.76 9.68 c-0.16 0 -0.4 0.04 -0.52 0.08 l0 0.04 c0.12 0 0.52 0.04 0.52 -0.08 l0 -0.04 z M320.88 9.48 l-0.04 0.04 c0 0.04 0.12 0.08 0.2 0.08 l0 -0.32 c-0.16 0 -0.16 0.08 -0.16 0.2 z M325.36 9.559999999999999 c-0.04 0 -0.08 0.04 -0.08 0.04 c0 0.04 0.04 0.08 0.08 0.08 c0 0 0.04 -0.04 0.04 -0.08 z M319.47999999999996 9.559999999999999 c0 -0.04 -0.08 -0.04 -0.12 -0.04 s-0.12 0 -0.12 0.04 s0.04 0.04 0.12 0.04 c0 0 0.08 0 0.12 -0.04 z M319.8 9.48 l0 0.08 l0.12 0 l0 -0.08 l-0.12 0 z M321.8 9.239999999999998 c-0.04 0 -0.28 0.16 -0.44 0.24 l0.04 0.04 c0.16 0 0.4 -0.16 0.4 -0.28 z M323.59999999999997 9.239999999999998 l0 0.12 l0.08 0 l0 -0.12 l-0.08 0 z M367.12399999999997 40.44 c-0.08 -0.08 -0.32 -0.24 -0.4 -0.32 c0.08 0 -0.92 -0.92 -0.92 -1.36 c0 -0.16 -0.88 -1.04 -0.88 -1.44 c0 -0.36 -1.16 -0.92 -1.16 -1.72 c-0.56 -1.2 -0.96 -1.2 -1.04 -1.6 c0.04 0 0.08 0 0.08 -0.04 s-0.96 -0.72 -0.76 -1.12 c0 0 -0.04 0.04 -0.08 0.04 c-0.08 0 -0.28 -0.16 -0.88 -1.4 c0 -0.24 -0.84 -0.6 -1 -1.44 c-0.76 -0.52 -0.08 -0.84 -1.68 -2.44 c-0.52 -0.4 0.4 0.36 -1.4 -2.16 c0 -0.08 0 -0.12 0.08 -0.2 c0 -0.08 -0.08 -0.08 -0.28 -0.08 l0 -0.04 c0 -0.2 -0.6 -0.48 -0.6 -0.84 c0 -0.16 -0.36 -0.92 -1 -1.56 c-0.04 0.04 -0.04 0.08 -0.04 0.08 l0 0 s0.04 -0.04 0.04 -0.08 c0 -0.16 -0.16 -0.56 -1.04 -1.52 c0 -0.52 -0.76 -0.68 -0.96 -1.52 c0 -0.16 -1.2 -1.16 -1.24 -1.84 l0 -0.04 c0 -0.24 -0.68 -0.64 -1 -1.44 c0 -0.52 -0.84 -0.76 -0.84 -1.44 c-0.2 0 -0.32 -0.72 -1.36 -1.8 c-0.2 0.04 -0.52 0.2 -0.52 0.36 l0 1.52 c0 0.08 0.04 0.2 0.04 0.28 c0 0.04 -0.04 1.28 -0.04 1.44 c0 1.36 0.04 1.68 0.04 2.08 c0 2.12 -0.04 2.64 -0.04 3.32 c0 1.36 0.12 2.52 0.12 3.96 c0 0.04 -0.08 0.16 -0.08 0.72 l0 11.64 c0.12 0.12 0.32 0.4 0.48 0.4 l2.84 0 c0.4 0 0.92 0.24 0.92 0.8 c0 0.36 -0.28 0.44 -0.6 0.44 l-2.68 0 l-0.48 -0.16 l0.16 0 l-0.24 -0.24 l0 0.32 c-0.28 0.04 -2.64 0.12 -2.64 0.12 c-0.04 0 -0.12 0 -0.2 -0.04 c0.08 -0.04 0.16 -0.08 0.2 -0.16 c-0.32 0 -0.32 0.04 -0.44 0.16 l-0.76 0 l-0.08 -0.08 l0.08 -0.08 l-0.08 -0.08 c-0.08 0.04 -0.4 0.08 -0.4 0.16 l0.08 0.08 c-0.28 0.08 -0.44 0.04 -0.8 0.04 s-0.88 -0.04 -0.88 -0.52 c0 -0.88 1.48 -0.92 2.56 -0.92 l0.16 0.08 l1 0 l0.04 0 c0.36 0 0.36 -1.68 0.36 -2.44 c0 -6.28 -0.16 -7.76 -0.16 -20.56 c0.16 -0.48 0.16 -2.24 0.16 -3.16 c0 -0.88 -0.12 -1.48 -1.28 -1.48 c-1.32 0.08 -0.96 0.32 -1.72 0.32 c-0.56 0 -1.28 -0.2 -1.28 -0.88 c0 -0.44 0.76 -1.04 1.2 -1.04 c1.16 0 -0.12 0.4 3.12 0.4 c0.36 0 0.72 -0.12 0.92 -0.12 c0.6 0 1.2 0.12 1.76 0.12 c0.32 0 0.6 -0.04 0.76 -0.12 c0.12 0.08 0.48 0.08 0.6 0.08 l2.04 0 c0.96 0 1.88 1.96 1.92 1.96 c0.12 0 1.36 2.08 1.36 2.28 c0 0 3.24 4.84 4.12 6.16 l0 0.04 c0 0.08 0.6 0.44 0.6 0.88 l-0.04 0 l-0.04 0 c0 0.12 0.84 0.76 0.84 1.08 c1.12 1.48 0.52 1.36 1.68 2.52 l0.56 1.16 c0.04 0.12 0.92 0.92 0.92 1.36 c0.48 0.04 0.72 1.8 1.4 1.84 c0.16 0 0.4 0 0.4 -0.2 l0 -3.2 c0 -0.04 0.08 -0.28 0.08 -0.32 c0 -0.44 -0.08 -0.68 -0.08 -1.04 c0 -1.28 -0.08 -8.12 -0.08 -12.48 c-0.08 -0.36 -0.24 -0.64 -0.44 -0.8 c-1.4 0 -1.44 0.08 -1.84 0.08 c-1.32 0 -1.64 0.08 -1.64 -0.84 c0 -0.48 0.56 -0.56 1.44 -0.56 c0.68 0 1.76 0.04 3.12 0.16 c0.12 0 0.48 -0.08 0.6 -0.08 c0.16 0 0.48 0.08 0.72 0.08 c0.96 -0.08 1.88 -0.16 2.56 -0.16 c0.04 0.08 0.76 0.24 0.84 0.48 l0 0.68 c-0.04 0.16 -0.72 0.24 -0.92 0.24 c-0.44 0 -1 -0.08 -1.44 -0.08 c-1.32 0.32 -1.56 -0.36 -1.56 1.12 l0 5.96 c0 0.4 0.04 0.56 0.04 1.24 c0 0.84 0 5.8 -0.12 6 c0 -0.08 0.08 3.96 0.08 4.52 c0 1.6 -0.08 1.44 -0.08 1.72 c0 0.2 0.12 0.88 0.12 1.12 l0 -0.12 c0 0 -0.12 0.52 -0.12 3 c0 1.56 0.12 3.24 0.12 3.92 c0 0.28 -0.08 0.44 -0.56 0.96 c0 0.04 0 0.08 -0.04 0.08 s-0.12 -0.2 -0.4 -0.2 z M367.12399999999997 40.08 l0 0.04 l0.12 0 z M343.40399999999994 39.92 c0.04 0.04 0.04 0.08 0.12 0.08 c-0.04 -0.08 -0.12 -0.08 -0.12 -0.08 z M344.00399999999996 39.92 c-0.08 0 -0.12 0.04 -0.16 0.08 l0.08 0 s0.08 0 0.12 -0.08 l-0.04 0 z M345.00399999999996 39.92 l0.08 0.08 c0.08 0 0.4 -0.24 0.4 -0.64 l-0.24 0 c0 0.24 0.04 0.4 -0.24 0.56 z M346.484 39.92 c0 -0.04 -0.04 -0.04 -0.08 -0.04 c0 0 -0.04 0 -0.04 0.04 s0.04 0.08 0.04 0.08 c0.04 0 0.08 -0.04 0.08 -0.08 z M349.96399999999994 39.84 c0 0 -0.04 0.04 -0.04 0.08 s0.04 0.08 0.04 0.08 c0.04 0 0.04 -0.04 0.04 -0.08 s0 -0.08 -0.04 -0.08 z M350.484 39.84 l0 0.08 l0.08 0 l0 -0.08 l-0.08 0 z M352.044 39.84 c-0.04 0 -0.08 0.04 -0.08 0.08 s0.04 0.08 0.08 0.08 s0.04 -0.04 0.04 -0.08 s0 -0.08 -0.04 -0.08 z M345.56399999999996 39.8 c-0.04 0 -0.08 0 -0.08 0.04 l0.12 0 c0 -0.04 -0.04 -0.04 -0.04 -0.04 z M351.284 39.76 c-0.08 0 -0.12 0 -0.16 0.04 z M343.12399999999997 39.52 l0 0.08 l0 -0.12 l0 0.04 z M343.12399999999997 39.36 c0.08 0.04 0.2 0.04 0.28 0.16 c0.08 0 0.24 -0.12 0.28 -0.24 l-0.56 0 l0 0.08 z M352.164 39.28 l0 0.2 l0.08 0 c0 -0.08 0 -0.16 -0.08 -0.2 z M351.924 39.16 c-0.08 0 -0.24 0.04 -0.24 0.16 c0 0.04 0.04 0.04 0.04 0.08 c0.12 0 0.2 -0.08 0.2 -0.24 z M347.40399999999994 38.68 c0 0.08 0.04 0.16 0.12 0.16 s0.28 -0.08 0.28 -0.08 l0 -0.08 l-0.4 0 z M347.924 38.12 l0 0.24 l0.04 0 c0 -0.04 0 -0.12 -0.04 -0.24 z M347.52399999999994 36.4 c-0.12 0 -0.12 0.12 -0.12 0.12 l0.12 -0.12 l0 0 z M347.40399999999994 34.28 c-0.04 0 -0.04 0.04 -0.04 0.08 l0.08 0 c0 -0.04 0 -0.08 -0.04 -0.08 z M347.804 33.68 l0 0.04 l0.04 0 z M362.64399999999995 33.72 l-0.04 0 l0.04 0 z M347.52399999999994 32.32 l0.16 0.16 c0 -0.04 0.04 -0.08 0.04 -0.12 s-0.08 -0.12 -0.2 -0.16 c-0.2 0 -0.24 0 -0.32 0.04 c0 0.12 0.04 0.12 0.08 0.16 c0.08 -0.04 0.16 -0.08 0.24 -0.08 z M347.844 31.36 l0.08 0.08 c0.04 -0.04 0.04 -0.08 0.04 -0.16 c0 0 -0.08 0.04 -0.12 0.08 z M347.284 30.36 c-0.04 0 -0.08 0.04 -0.08 0.04 s0.04 0.04 0.08 0.04 s0.04 -0.04 0.04 -0.04 s0 -0.04 -0.04 -0.04 z M347.20399999999995 26.36 c-0.04 0 -0.08 0.04 -0.08 0.08 l0.08 0 l0.04 0 c0 -0.04 0 -0.08 -0.04 -0.08 z M347.20399999999995 26.04 l0 0.16 c0 0.04 0.04 0.04 0.04 0.04 c0.08 0 0.12 -0.2 0.12 -0.2 l-0.16 0 z M347.20399999999995 24.92 c-0.04 0 -0.08 0.04 -0.08 0.04 c0 0.04 0.04 0.04 0.08 0.04 s0.04 0 0.04 -0.04 c0 0 0 -0.04 -0.04 -0.04 z M347.20399999999995 18.6 c-0.04 0 -0.08 0.04 -0.08 0.08 s0.04 0.08 0.08 0.08 s0.04 -0.04 0.04 -0.08 s0 -0.08 -0.04 -0.08 z M347.12399999999997 18.44 c-0.04 0 -0.04 0.04 -0.04 0.08 l0.08 0 c0 -0.04 0 -0.08 -0.04 -0.08 z M368.32399999999996 10.96 c0 0 -0.04 0 -0.04 0.04 s0.04 0.08 0.04 0.08 c0.04 0 0.04 -0.04 0.04 -0.08 s0 -0.04 -0.04 -0.04 z M369.24399999999997 10.84 c0 0.12 0.12 0.12 0.16 0.12 l0.16 -0.52 c0.2 0 0.36 0.16 0.6 0.16 c0.04 0 0.08 0 0.08 -0.16 c0 -0.2 -0.32 -0.2 -0.56 -0.2 l0.04 0 s-0.52 0.24 -0.52 0.52 c0 0 0 0.04 0.04 0.08 z M371.284 10.2 l-0.04 -0.04 c0 0.08 0.24 0.64 0.24 0.8 c0.04 0 0.2 0 0.2 -0.48 c0 -0.32 -0.36 -0.24 -0.4 -0.28 z M368.76399999999995 10.84 c-0.04 0 -0.04 0.04 -0.04 0.08 c0 0 0 0.04 0.04 0.04 s0.04 -0.04 0.04 -0.04 c0 -0.04 0 -0.08 -0.04 -0.08 z M368.724 10.760000000000002 c-0.04 0 -0.04 0.04 -0.04 0.04 c0 0.04 0 0.04 0.04 0.04 c0 0 0.04 0 0.04 -0.04 z M345.40399999999994 10.559999999999999 c-0.04 0 -0.04 0.04 -0.04 0.04 c0 0.04 0.12 0.12 0.2 0.16 l0 -0.2 l-0.16 0 z M347.724 10.559999999999999 c0.04 0.04 0.08 0.16 0.08 0.16 c0.04 0 0.04 0 0.04 -0.04 l0 -0.24 l0 0 l-0.04 0 c0 0 -0.04 0.04 -0.08 0.12 z M343.12399999999997 10.36 l0 0.16 c0.08 -0.08 0.16 -0.12 0.16 -0.24 c0 -0.04 -0.08 -0.04 -0.12 -0.04 s-0.04 0.04 -0.04 0.04 l0 0.08 z M346.724 10.36 c0 0.08 0 0.12 0.08 0.16 c0.04 -0.04 0.08 -0.08 0.08 -0.16 l-0.16 0 z M366.284 10.36 l0 0.16 l0.04 0 z M367.284 10.280000000000001 l0 0.24 c0.12 0 0.16 -0.16 0.16 -0.24 l-0.16 0 z M367.604 10.280000000000001 c0 0.16 0.04 0.24 0.12 0.24 c0.04 0 0.04 0 0.04 -0.04 c0 -0.12 -0.08 -0.2 -0.12 -0.2 l-0.04 0 z M363.56399999999996 10.239999999999998 l-0.04 0.04 s0.16 0.16 0.28 0.16 c0 0 0.04 0 0.2 -0.16 c0 -0.04 -0.32 -0.04 -0.44 -0.04 z M370.64399999999995 10.280000000000001 c-0.12 0 -0.12 0.08 -0.12 0.2 c0.04 0 0.12 -0.12 0.2 -0.2 l-0.08 0 z M344.604 10.280000000000001 c0.04 0.08 0.04 0.12 0.08 0.12 s0.04 -0.04 0.08 -0.04 l0 -0.08 l-0.16 0 z M363.24399999999997 10.239999999999998 l0 0.04 l0.04 0 z M378.328 39.44 l0 -0.2 l0.48 -0.48 l1.96 0 l0.16 0.08 l0.92 0.08 c0.16 0.08 0.36 -0.52 0.48 -0.52 l0 -4.84 c0 -0.04 -0.08 -0.52 -0.08 -0.56 c0 0 0.08 -0.96 0.08 -1.16 c0.08 -0.12 -0.12 0.16 -0.12 -0.64 c0 -0.08 0.12 -0.16 0.12 -0.32 c0 -0.28 -0.08 -0.44 -0.08 -0.64 c0 -0.08 0.08 -0.36 0.08 -0.52 l0 -2.52 c0 -0.36 -0.12 -1 -0.12 -1.48 l0.04 -3.44 c-0.04 -0.16 -0.04 -1.2 -0.04 -1.4 c0 -0.12 0.04 -1.04 0.04 -1.16 c0 -0.04 -0.04 -2.08 -0.04 -2.32 c0 -2.48 0.04 -2.92 0.04 -4 c0 -0.48 0 -1.52 -0.04 -1.84 l-0.24 -0.28 s-0.8 -0.04 -1.12 -0.04 c-0.52 0 -0.92 0.12 -1.4 0.12 c-0.44 -0.08 -0.88 0.24 -1.28 -0.68 c0 -0.36 0.08 -0.8 0.44 -0.88 c8.16 0 9 0.08 12.24 0.08 c7.76 0 7.32 -0.08 10.56 -0.08 c0.4 0 0.84 7.32 0.84 7.68 c0 0.04 0.04 0.04 0.04 0.08 c0 0.48 -0.72 0.84 -0.96 0.84 c-0.52 0 -0.8 -0.56 -0.96 -1.2 c0.16 0 -1.72 -3.08 -1.64 -2.92 c-0.52 -0.52 -0.56 -0.6 -0.88 -1 c0 -0.36 -1.72 -1.16 -1.92 -1.44 c0 0.04 -0.04 0.04 -0.04 0.04 c-0.12 0 -0.24 -0.48 -1.08 -0.48 c-1.12 0 -1.04 -0.16 -2.76 -0.16 l0 -0.08 l-1.24 0 l-0.08 0.08 l-0.52 0 l0.28 -0.08 c-0.92 0 -1.32 -0.12 -1.56 -0.12 c-0.36 0 -0.8 0.2 -0.8 1.36 c0 2.24 0.08 3.44 0.08 4 c0 0.6 -0.08 2.36 -0.08 2.6 c0 0.68 0.16 1.24 0.16 1.72 c-0.08 0 -0.16 0.28 -0.16 0.4 s0.16 0.88 0.16 1.24 c0 0.08 -0.08 0.2 -0.08 0.24 c0 0.12 -0.12 1.64 0.28 1.64 c0.92 0 1.6 -0.24 2.32 -0.24 l0 0.04 c0.12 0 0.48 -0.6 0.76 -0.6 c0.48 0 0.56 -0.16 1.08 -0.68 l0 0.04 c-0.04 0 0.68 -1.44 1.08 -1.92 c0.68 -0.32 -0.24 -2 1.76 -2 l0.12 0.08 c0 0.36 0.2 0.48 0.2 1.6 c-0.04 0.32 -0.08 1.36 -0.08 1.28 c0 0.44 0.08 1.12 0.08 1.68 c0 0.48 0 0.48 -0.08 0.72 c0 0.4 0.08 0.92 0.08 1.04 c0 0.52 -0.08 0.52 -0.08 0.92 c0 0.32 0.08 2.48 0.08 2.76 c0 0.16 -0.08 0.32 -0.08 0.56 l0 1.48 c0.04 0.04 -0.32 0.32 -0.52 0.32 c-1.28 0 -0.2 -0.24 -1.64 -2.84 c-1.12 -1.96 -1.48 -1.88 -2.12 -2.44 c0.04 0 -1.16 -0.4 -1.44 -0.4 l-0.12 -0.2 l-1.28 -0.04 c-0.6 0.32 -0.52 2 -0.52 1.36 c0 0.16 0.12 0.56 0.12 1.16 c0 0.28 -0.04 0.76 -0.12 1.2 c0 0.04 0.12 0.4 0.12 0.64 c0 0.4 -0.08 0.36 -0.08 0.52 c0 0.28 0.08 0.44 0.08 0.56 c-0.12 1.56 -0.16 4.36 -0.16 4.84 c0 2.52 -0.04 2.72 0.56 3.32 l1.72 0 c0.16 -0.04 0.36 -0.16 0.52 -0.16 c0.04 0 2.4 0.08 2.72 0.08 s0.04 -0.2 0.88 -0.2 c1.52 -0.6 1.44 -0.08 2.72 -1.08 c-0.04 0 -0.04 -0.04 -0.04 -0.04 c0 -0.12 1 -0.56 1.52 -1.2 c-0.04 0 -0.04 -0.04 -0.04 -0.04 c0 -0.6 1.76 -1.04 1.76 -2.48 c0 -0.16 0.72 -1.08 0.72 -1.32 c1 -2.52 0.36 -2.4 1.64 -2.4 c0.04 0 0.48 0 0.48 0.52 c0 2.6 -0.4 5.8 -0.4 7.6 c0 0.28 0.04 0.56 0.04 0.84 c0 0.48 -0.16 0.88 -1.12 0.88 l-15.4 0 c-2.32 0 -3.16 0.08 -7.44 0.08 c-0.76 -0.24 -0.56 -0.56 -0.56 -0.64 z M378.728 39.6 l0 -0.04 l0 0.12 c0 0.12 0.04 0.28 0.4 0.28 c0.08 0 0.2 0 0.32 -0.04 l0 -0.08 l-0.32 -0.36 c-0.04 0.08 -0.08 0.16 -0.16 0.2 c-0.04 0 -0.16 -0.04 -0.24 -0.12 l0 0.04 z M392.928 39.76 l0.04 0.08 c0.04 -0.04 0.04 -0.04 0.04 -0.16 z M391.368 39.68 c-0.12 0 -0.16 0 -0.2 0.08 l0.2 0 l0 -0.08 z M380.128 39.24 c0.08 0 0.24 0.08 0.28 0.08 c0.36 0 0.24 0 0.36 -0.08 c-0.08 0 -0.36 -0.08 -0.4 -0.08 c-0.16 0 -0.16 0 -0.24 0.08 z M402.08799999999997 39.24 c0.04 0.12 0.16 0.08 0.24 0.08 c-0.04 -0.08 -0.12 -0.08 -0.24 -0.08 z M383.20799999999997 39.24 c0 -0.04 -0.04 -0.04 -0.08 -0.04 s-0.08 0 -0.08 0.04 s0.04 0.08 0.08 0.08 s0.08 -0.04 0.08 -0.08 z M378.96799999999996 39.12 l0 0.04 l0.4 0 c-0.08 -0.04 -0.32 -0.04 -0.4 -0.04 z M382.64799999999997 33.8 l-0.04 -0.04 c-0.04 0 -0.04 0.04 -0.04 0.04 c0 0.04 0 0.08 0.04 0.08 c0 0 0.04 -0.04 0.04 -0.08 z M382.568 32.08 l0 0.16 c0.04 0 0.04 -0.04 0.04 -0.08 s0 -0.08 -0.04 -0.08 z M382.64799999999997 31.84 c0.04 0.08 0.12 0.08 0.24 0.08 c0 -0.08 0.04 -0.32 -0.08 -0.4 c0 0.08 -0.16 0.2 -0.16 0.32 z M382.888 31.08 c0 0.04 0 0.08 0.04 0.12 l0.04 -0.12 l-0.08 0 z M402.888 31.08 c-0.04 0 -0.08 0.04 -0.08 0.08 c0 0 0.04 0.04 0.08 0.04 s0.04 -0.04 0.04 -0.04 c0 -0.04 0 -0.08 -0.04 -0.08 z M403.08799999999997 31 c-0.04 0 -0.04 0.04 -0.04 0.08 c0 0 0 0.04 0.04 0.04 l0 -0.12 z M382.64799999999997 24.96 c-0.04 0 -0.08 0.04 -0.08 0.08 c0 0 0.04 0.04 0.08 0.04 s0.04 -0.04 0.04 -0.04 c0 -0.04 0 -0.08 -0.04 -0.08 z M382.928 24.96 c0 -0.04 0 -0.04 -0.04 -0.04 l0 0.08 c0.04 0 0.04 0 0.04 -0.04 z M382.64799999999997 23.2 l-0.04 -0.04 c-0.04 0 -0.04 0.04 -0.04 0.04 c0 0.04 0 0.08 0.04 0.08 c0 0 0.04 -0.04 0.04 -0.08 z M395.408 19.84 c0 -0.04 -0.04 -0.04 -0.08 -0.04 c0 0 -0.04 0 -0.04 0.04 s0.04 0.08 0.04 0.08 c0.04 0 0.08 -0.04 0.08 -0.08 z M401.08799999999997 17.92 c-0.04 0 -0.08 0.04 -0.08 0.08 c0 0 0.04 0.04 0.08 0.04 s0.04 -0.04 0.04 -0.04 c0 -0.04 0 -0.08 -0.04 -0.08 z M387.168 15.920000000000002 c-0.04 0.04 -0.04 0.12 -0.04 0.16 l0.44 0 c-0.04 -0.08 -0.2 -0.16 -0.4 -0.16 z M382.568 14.36 l0 0.16 c0.04 0 0.04 -0.04 0.04 -0.08 s0 -0.08 -0.04 -0.08 z M382.568 12.32 l0 0.16 c0.04 0 0.04 -0.04 0.04 -0.08 s0 -0.08 -0.04 -0.08 z M401.488 10.84 l0 0.4 l0.04 -0.2 c0 -0.08 0 -0.12 -0.04 -0.2 z M381.168 11.079999999999998 c-0.04 0 -0.04 0.04 -0.04 0.08 s0 0.08 0.04 0.08 s0.04 -0.04 0.04 -0.08 s0 -0.08 -0.04 -0.08 z M384.52799999999996 11.16 c0 -0.04 -0.04 -0.04 -0.04 -0.04 c-0.04 0 -0.04 0 -0.04 0.04 s0 0.08 0.04 0.08 c0 0 0.04 -0.04 0.04 -0.08 z M380.048 10.760000000000002 c-0.36 0 -0.16 0.28 -0.28 0.32 c0.24 0 0.28 -0.04 0.28 -0.12 c0 -0.04 -0.04 -0.08 -0.04 -0.12 s0.04 -0.04 0.04 -0.08 z M381.008 10.96 l0.12 0.08 l0.04 -0.08 l-0.08 -0.04 z M379.248 10.84 c-0.04 0 -0.04 0.04 -0.04 0.08 c0 0 0 0.04 0.04 0.04 s0.04 -0.04 0.04 -0.04 c0 -0.04 0 -0.08 -0.04 -0.08 z M379.64799999999997 10.68 l-0.28 0.08 l0.28 0 l0 -0.08 z M383.20799999999997 10.68 c-0.04 0 -0.08 0.04 -0.08 0.04 c0 0.04 0.04 0.04 0.08 0.04 c0 0 0.04 0 0.04 -0.04 z M387.248 10.68 l0 0.08 l0.04 0 z M379.848 10.68 l-0.08 0 c0 0.04 0 0.08 0.04 0.08 c0 0 0.04 -0.04 0.04 -0.08 z M380.768 10.64 c-0.08 0 -0.08 0.08 -0.08 0.08 c0.04 0 0.04 -0.04 0.08 -0.08 z M382.488 10.68 l-0.08 0 c0 0.04 0 0.08 0.04 0.08 c0 0 0.04 -0.04 0.04 -0.08 z M389.008 10.64 c-0.08 0 -0.16 0.04 -0.24 0.04 l0.28 0 z M378.64799999999997 10.64 c0 0 0 -0.04 -0.04 -0.04 l0 0.08 c0.04 0 0.04 0 0.04 -0.04 z M390.728 10.52 c0 0.16 0.04 0.08 0.08 0.12 c0 0 0.04 0 0.08 -0.04 l-0.08 -0.16 z M401.328 10.120000000000001 l0 0.48 l0.08 0 c0 -0.12 0.04 -0.48 -0.08 -0.48 z M380.288 10.2 c-0.04 0 -0.08 0.04 -0.08 0.04 c0 0.04 0.04 0.04 0.08 0.04 s0.04 0 0.04 -0.04 c0 0 0 -0.04 -0.04 -0.04 z M378.96799999999996 10.2 l-0.04 -0.08 z M379.448 10.04 c-0.08 0.04 -0.12 0.08 -0.12 0.12 l0.04 0.04 l0.08 0 l0 -0.16 z M414.05199999999996 38.84 c-0.36 0 -0.56 0.08 -0.8 0.12 c-0.36 0 -0.28 0 -0.32 -0.04 l-0.12 0.04 c0 0.12 0.04 0.12 0.12 0.16 c0 -0.04 -0.12 0.08 -0.2 0.24 l0.04 0 c0 0.04 -1.28 1.04 -1.48 1.04 c-0.92 0 -0.92 -1.08 -0.92 -1.24 c0 -0.08 0 -0.08 0.04 -0.2 c0 -4.48 -0.2 -3.8 -0.2 -6.48 c0 0 0.04 -0.04 0.04 -0.08 c0 -0.12 -0.08 -0.32 -0.08 -0.52 c0 -0.36 0.16 -0.6 1.2 -0.6 c0.12 0 0.28 0.12 0.64 0.76 c0 0.2 0.72 0.8 0.8 1.16 c-0.04 0.04 -0.08 0.08 -0.08 0.12 c0 0.16 0.6 0.4 0.6 0.64 c0 0.04 -0.04 0.08 -0.04 0.08 c0 0.24 0.4 0.44 0.4 0.56 c0.48 0.88 0.52 0.84 1.16 1.48 c0.2 0 1.68 2.64 2.8 2.64 c1.44 0.12 1.72 0.64 3.24 0.64 c0.84 0 0.72 -0.04 1 -0.2 c-0.08 0.08 -0.04 0.08 -0.08 0.08 c0 0 0.28 -0.4 1.6 -0.4 c0.6 0 1.76 -1.12 2 -1.28 c0.08 -0.08 0.48 -0.24 0.48 -0.32 c0 -0.24 0.84 -1.4 0.96 -1.52 c-0.04 -0.08 -0.04 -0.16 -0.04 -0.2 c0 -0.6 0.64 0.32 0.64 -3.4 c-0.04 -0.12 -0.16 -1.4 -0.44 -1.64 c-0.12 0 -0.12 -0.92 -1.08 -1.56 c0 -0.04 0.04 -0.24 0.04 -0.32 c-1.56 -0.08 -0.76 -0.88 -1.8 -0.88 c-1.96 0 -0.4 -0.6 -2.52 -0.6 c-0.2 -0.2 -1.96 -0.16 -2.36 -0.4 c-0.08 0 -0.36 0.08 -0.44 0.08 c-0.48 0 -0.08 -0.4 -1.16 -0.4 c-3.64 -0.2 -1.68 -0.88 -2.92 -0.88 l0 -0.08 c0.12 0 0.28 -0.04 0.4 0.08 c0 0 0.2 -0.08 0.2 -0.12 c0 0 -0.08 -0.08 -0.08 -0.12 l-1.24 0 c-0.4 -0.36 -0.36 -0.6 -0.68 -0.68 c0 -0.04 -0.44 0.04 -1.12 -0.88 c0 -0.28 -0.88 -1.32 -1.08 -1.48 c-0.36 -1.88 -0.8 -3 -0.8 -4.44 c0.08 -0.44 0 -1 0.16 -1.28 l0 0.04 c0.04 0 0.2 -1.36 0.32 -1.28 c-0.04 0 -0.08 -0.04 -0.08 -0.08 c0 -0.32 0.84 -1.2 0.84 -1.52 c-0.04 -0.04 -0.04 -0.08 -0.04 -0.08 c0 -0.28 0.64 -0.56 0.64 -0.68 s0.52 -0.96 0.76 -1.12 c-0.04 0.04 -0.04 0.08 -0.04 0.08 c-0.04 0 1.96 -1.32 2 -1.36 c2.44 -0.4 0.32 -1.08 3.04 -1.08 l3.92 0 c0.08 0 0.92 0 1.32 0.32 c1.64 0.08 1.36 1.04 2.08 1.04 c1.32 0 0.96 -0.08 1.36 -0.48 c-0.16 -0.2 1.08 -0.04 1.2 -0.56 l0.52 0 c0.08 0 0.4 0.32 0.44 0.4 c0.12 4.96 0.36 4.84 0.36 7.44 c0 0.2 -0.36 0.32 -0.52 0.64 l-0.56 0 l0 -0.16 c-0.12 0 -0.96 -0.56 -0.96 -1 l0 0.04 c-0.04 0 -0.32 -1 -0.76 -1.16 l0.04 0 c0 -0.12 -0.52 -0.52 -0.52 -0.8 c-0.6 -0.88 -0.52 -0.84 -1 -1.32 l0.04 0 c0 -0.04 -1 -0.64 -1 -0.92 c0 -0.6 -1.48 -1.32 -1.8 -1.64 c0.12 -0.24 -1.04 -0.56 -2.2 -0.56 c-0.04 0 -0.08 0.04 -0.12 0.04 c-0.4 0 -0.24 -0.68 -0.36 -0.68 c-0.08 0.08 -0.12 0.08 -0.16 0.16 c-0.04 0 -0.2 -0.04 -0.32 -0.08 c-0.24 0.88 -0.64 0.4 -0.76 0.64 c-0.24 -0.12 -0.08 -0.24 -0.24 -0.28 c-0.84 0.4 -0.6 0.36 -2.44 1.28 c-1.2 2.36 -0.56 -0.56 -1.88 3.04 l0 1.76 l0 -0.04 c0.04 0 0.2 1.56 0.56 1.76 c0.08 0.12 0.6 0.52 0.76 0.84 c0.28 0 0.64 1.04 1.8 1.04 c0.48 0.52 2.36 0.4 4.28 0.88 c0.56 0.16 3.48 0.16 4.16 0.96 l-0.04 0 c0 0.08 0.96 0.16 1.12 0.28 c0 -0.08 1.92 1.12 1.92 1.36 c0 0.04 0 0.04 -0.04 0.04 c0.68 0 1.36 1.52 1.64 1.72 c0.2 1.44 0.76 1 0.76 2.12 c0.48 1.52 0.4 1.88 0.4 3.76 c-0.12 0.12 -0.2 1.52 -0.4 1.6 c0 2.04 -1.04 1.92 -1.04 2.8 l-0.52 0.48 c0 0.08 -0.04 0.24 -0.04 0.24 c-0.8 0.72 -0.52 0.84 -0.88 1 c-0.12 0 -0.32 0.6 -1 0.8 c-0.76 1.16 -1.08 0.24 -1.88 1.4 c-3.6 0 0.08 0.88 -3.92 0.88 c-4.56 0 -2.96 -0.12 -4.44 -0.48 c-0.04 0 -0.04 0.04 -0.08 0.04 c-0.24 0 -0.6 -0.32 -0.92 -0.32 c0 -0.04 -0.6 -0.12 -0.6 -0.2 c0 0.04 0.04 0.04 0.04 0.04 c0 -0.04 -0.56 -0.84 -1 -0.84 c-0.08 0 -0.16 0.04 -0.24 0.08 z M421.652 40.28 c-0.04 0 -0.04 0.04 -0.04 0.08 c0 0 0 0.04 0.04 0.04 s0.04 -0.04 0.04 -0.04 c0 -0.04 0 -0.08 -0.04 -0.08 z M418.652 40.2 c-0.04 0 -0.04 0.04 -0.04 0.04 c0 0.04 0 0.04 0.04 0.04 s0.04 0 0.04 -0.04 c0 0 0 -0.04 -0.04 -0.04 z M422.45199999999994 40.2 c-0.04 0 -0.08 0.04 -0.08 0.08 s0.04 0.08 0.08 0.08 s0.04 -0.04 0.04 -0.08 s0 -0.08 -0.04 -0.08 z M421.57199999999995 40.12 c-0.04 0 -0.08 0.04 -0.08 0.08 s0.04 0.08 0.08 0.08 s0.04 -0.04 0.04 -0.08 s0 -0.08 -0.04 -0.08 z M422.45199999999994 40.04 c-0.08 0 -0.12 0 -0.12 0.04 l0.04 0.04 l0.08 0 l0 -0.08 z M419.532 40.04 c-0.04 0 -0.04 0 -0.04 0.04 c0 0 0 0.04 0.04 0.04 s0.04 -0.04 0.04 -0.04 c0 -0.04 0 -0.04 -0.04 -0.04 z M422.45199999999994 39.76 l0 0.2 c0.08 -0.04 0.16 -0.12 0.2 -0.2 l-0.2 0 z M423.532 39.64 c-0.36 0 -0.36 0.12 -0.36 0.24 c0.04 0 0.12 -0.04 0.2 -0.08 c0.04 0 0.16 0.04 0.24 0.08 l0.16 -0.08 s0 -0.16 -0.24 -0.16 z M418.772 39.68 l0 0.08 l0.16 0 l0 -0.08 l-0.16 0 z M420.772 39.68 c-0.04 0 -0.04 0.04 -0.04 0.08 c0 0 0 0.04 0.04 0.04 s0.04 -0.04 0.04 -0.04 c0 -0.04 0 -0.08 -0.04 -0.08 z M421.892 39.68 c-0.04 0 -0.08 0.04 -0.08 0.08 c0 0 0.04 0.04 0.08 0.04 s0.04 -0.04 0.04 -0.04 c0 -0.04 0 -0.08 -0.04 -0.08 z M418.212 39.44 c-0.04 0 -0.08 0 -0.08 0.04 l0.08 0 l0.04 0 c0 -0.04 0 -0.04 -0.04 -0.04 z M416.972 39.32 c-0.04 0 -0.08 0 -0.12 0.04 z M416.852 39.16 c-0.04 0 -0.08 0.04 -0.08 0.08 s0.04 0.08 0.08 0.08 s0.04 -0.04 0.04 -0.08 s0 -0.08 -0.04 -0.08 z M416.972 39.12 c-0.04 0 -0.04 0.04 -0.04 0.08 c0 0 0 0.04 0.04 0.04 s0.04 -0.04 0.04 -0.04 c0 -0.04 0 -0.08 -0.04 -0.08 z M411.25199999999995 39.04 c-0.04 0 -0.08 0.04 -0.08 0.08 c0 0 0.04 0.04 0.08 0.04 l0.04 -0.04 c0 -0.04 -0.04 -0.08 -0.04 -0.08 z M416.852 39.04 c-0.04 0 -0.08 0.04 -0.08 0.08 c0 0 0.04 0.04 0.08 0.04 s0.04 -0.04 0.04 -0.04 c0 -0.04 0 -0.08 -0.04 -0.08 z M410.69199999999995 38.92 c-0.04 0 -0.08 0.04 -0.08 0.04 c0 0.04 0.04 0.08 0.08 0.08 c0 0 0.04 -0.04 0.04 -0.08 z M417.17199999999997 38.96 l-0.08 0 c0 0.04 0 0.08 0.04 0.08 c0 0 0.04 -0.04 0.04 -0.08 z M425.01199999999994 38.92 c-0.04 0 -0.04 0.04 -0.04 0.04 l0.08 0 c0 0.04 0 -0.04 -0.04 -0.04 z M410.69199999999995 38.24 l0 -0.16 l0 0.16 z M426.852 38.16 c-0.04 0 -0.08 0.04 -0.08 0.08 l0.12 0 c0 -0.04 -0.04 -0.08 -0.04 -0.08 z M427.412 37.68 l0 0.08 l0.04 0 z M427.292 37.56 c-0.04 0 -0.08 0.04 -0.08 0.08 c0 0 0.04 0.04 0.08 0.04 s0.04 -0.04 0.04 -0.04 c0 -0.04 0 -0.08 -0.04 -0.08 z M427.532 37.6 l0.08 -0.04 z M427.772 37.36 l0 0 l-0.08 0.08 c0.04 -0.04 0.04 -0.08 0.08 -0.08 z M410.81199999999995 37.32 c-0.04 0 -0.08 0 -0.08 0.04 c0 0 0.08 0 0.08 -0.04 l0 0 z M410.69199999999995 36.92 l0 0.24 l0.04 0 c0 -0.04 0 -0.2 -0.04 -0.24 z M429.01199999999994 36.04 c-0.04 0 -0.04 0.04 -0.04 0.04 s0 0.04 0.04 0.04 s0.04 -0.04 0.04 -0.04 s0 -0.04 -0.04 -0.04 z M427.772 32.76 l0.08 0.04 l0.08 -0.04 l-0.16 0 z M410.69199999999995 32.12 l-0.08 0 c0 0.04 0 0.08 0.04 0.08 c0 0 0.04 -0.04 0.04 -0.08 z M430.61199999999997 31.439999999999998 l0 -0.04 c-0.04 0 -0.04 0 -0.04 0.04 s0 0.08 0.04 0.08 l0 -0.08 z M413.81199999999995 24.68 c-0.04 0 -0.08 0.04 -0.08 0.08 s0.04 0.08 0.08 0.08 s0.04 -0.04 0.04 -0.08 s0 -0.08 -0.04 -0.08 z M412.17199999999997 22.96 c-0.04 0 -0.08 0.04 -0.08 0.08 c0 0 0.04 0.04 0.08 0.04 l0.04 -0.04 c0 -0.04 -0.04 -0.08 -0.04 -0.08 z M425.01199999999994 22.56 c-0.04 0 -0.04 0.04 -0.04 0.08 c0 0 0 0.04 0.04 0.04 s0.04 -0.04 0.04 -0.04 c0 -0.04 0 -0.08 -0.04 -0.08 z M411.69199999999995 22.4 l0 0.08 l0.08 -0.08 l-0.08 0 z M415.49199999999996 22.04 c0 0 -0.04 0 -0.04 0.04 l0.08 0 c0 -0.04 -0.04 -0.04 -0.04 -0.04 z M419.45199999999994 21.52 c-0.08 0 -0.28 0.08 -0.28 0.12 s0.04 0.04 0.04 0.04 c0.08 0 0.16 -0.08 0.24 -0.16 z M410.93199999999996 20.36 c-0.04 0 -0.08 -0.04 -0.08 0.2 c0 0.04 0.04 0.12 0.04 0.12 c0.04 0 0.08 -0.08 0.08 -0.12 c0 -0.08 -0.04 -0.16 -0.04 -0.2 z M410.81199999999995 19.96 c-0.04 0 -0.08 0.04 -0.08 0.08 s0.04 0.08 0.08 0.08 l0 -0.16 z M427.93199999999996 12.920000000000002 c-0.04 0 -0.08 0.04 -0.08 0.08 c0 0 0.04 0.04 0.08 0.04 s0.04 -0.04 0.04 -0.04 c0 -0.04 0 -0.08 -0.04 -0.08 z M428.49199999999996 12.920000000000002 c-0.04 0 -0.04 0.04 -0.04 0.08 c0 0 0 0.04 0.04 0.04 s0.04 -0.04 0.04 -0.04 c0 -0.04 0 -0.08 -0.04 -0.08 z M428.652 12.920000000000002 c-0.04 0 -0.08 0.04 -0.08 0.08 c0 0 0.04 0.04 0.08 0.04 l0.04 -0.04 c0 -0.04 -0.04 -0.08 -0.04 -0.08 z M419.69199999999995 12.04 l0 -0.44 c0.04 -0.04 0.12 -0.08 0.16 -0.12 l0.08 0.08 c0 0.12 -0.16 0.32 -0.16 0.56 z M428.49199999999996 11.879999999999999 c-0.04 0 -0.04 0.04 -0.04 0.08 c0 0 0 0.04 0.04 0.04 s0.04 -0.04 0.04 -0.04 c0 -0.04 0 -0.08 -0.04 -0.08 z M415.37199999999996 11.68 c-0.2 0.04 -0.2 0.2 -0.2 0.2 c0.04 -0.04 0.2 -0.12 0.2 -0.16 l0 -0.04 z M414.412 11.48 c0 0.08 0.12 0.12 0.2 0.12 c-0.04 -0.12 -0.2 -0.12 -0.24 -0.12 l0.04 0 z M428.332 11.559999999999999 c0.04 0.04 0.08 0.04 0.12 0.04 c0.16 0 0.2 -0.12 0.2 -0.24 z M415.05199999999996 11.239999999999998 c-0.12 0 -0.08 0.12 -0.08 0.24 l0.08 0 l0 -0.24 z M422.972 10.879999999999999 c-0.12 0.2 -0.08 0.36 -0.08 0.52 c0.16 -0.04 0.2 -0.24 0.2 -0.44 c-0.04 -0.04 -0.04 -0.08 -0.12 -0.08 z M415.05199999999996 11.04 c-0.04 0 -0.08 0 -0.08 0.04 l0.08 0 l0.04 0 c0 -0.04 0 -0.04 -0.04 -0.04 z M427.93199999999996 10.96 c0 -0.04 -0.04 -0.04 -0.12 -0.04 c-0.04 0 -0.08 0 -0.08 0.04 s0.04 0.08 0.08 0.08 c0.08 0 0.12 -0.04 0.12 -0.08 z M428.092 10.84 c-0.04 0 -0.08 0.04 -0.08 0.04 l0.04 0 l0.04 0 l0 -0.04 z M424.13199999999995 10.84 l-0.04 -0.04 z M421.652 10.8 c0 -0.04 -0.04 -0.04 -0.04 -0.04 s-0.04 0 -0.04 0.04 s0.04 0.04 0.04 0.04 s0.04 0 0.04 -0.04 z M427.092 10.8 c0 -0.04 -0.04 -0.04 -0.04 -0.04 c-0.04 0 -0.04 0 -0.04 0.04 s0 0.04 0.04 0.04 c0 0 0.04 0 0.04 -0.04 z M427.61199999999997 10.719999999999999 c-0.04 0 -0.08 0.04 -0.08 0.08 c0 0 0.04 0.04 0.08 0.04 s0.04 -0.04 0.04 -0.04 c0 -0.04 0 -0.08 -0.04 -0.08 z M428.49199999999996 10.64 l0 0.16 l0.08 -0.08 z M416.332 10.32 c0 0.12 0.08 0.28 0.08 0.4 l0.08 -0.2 s-0.04 -0.16 -0.08 -0.28 z M423.37199999999996 10.48 c-0.04 0 -0.08 0.04 -0.08 0.04 s0.04 0.04 0.08 0.04 s0.04 -0.04 0.04 -0.04 s0 -0.04 -0.04 -0.04 z M427.73199999999997 10.239999999999998 c-0.12 0.04 -0.16 0.16 -0.2 0.28 c0.24 0 0.2 -0.12 0.2 -0.28 z M428.49199999999996 10.48 l0 0.04 l0.08 0 z M428.49199999999996 10.239999999999998 c-0.04 0 -0.04 0.04 -0.04 0.04 c0 0.04 0 0.04 0.04 0.04 s0.04 0 0.04 -0.04 c0 0 0 -0.04 -0.04 -0.04 z M420.13199999999995 10.079999999999998 c-0.04 0.12 0.2 0.16 0.2 0.16 c0.08 -0.12 0.48 0.04 0.44 -0.16 l-0.64 0 z M422.652 10.16 l-0.08 0 c0 0.04 0 0.08 0.04 0.08 c0 0 0.04 -0.04 0.04 -0.08 z M417.892 10 l0 0.08 l0.16 0 l0 -0.08 l-0.16 0 z M418.652 9.920000000000002 c-0.12 0 -0.28 0.12 -0.32 0.16 l0.32 0 l0 -0.16 z M421.652 10 l0 0.08 l0.24 0 z">
		</path>
	</g>
	<g id="SvgjsG2550" featurekey="sloganFeature-0" transform="matrix(0.6521231685909783,0,0,0.6521231685909783,117.60689466577668,137.11365373731417)" fill="#111111">
		<path d="M0.96 24.3 c-0.26 0 -0.46 -0.64 -0.3 -0.66 c0.9 -0.1 1.86 -1.16 1.86 -3.52 l0 -11.72 c0 -1.4 -0.8 -1.68 -1.66 -1.8 c-0.16 -0.02 -0.04 -0.6 0.12 -0.6 l5.34 0 c0.16 0 0.28 0.58 0.12 0.6 c-0.86 0.12 -1.66 0.4 -1.66 1.8 l0 11.72 c0 2.02 -2.48 4.18 -3.82 4.18 z M20.63 20.04 c-0.2 0.02 -0.28 -0.64 -0.12 -0.68 c1.16 -0.3 2.08 -0.48 2.08 -1.96 l0 -8.92 c0 -1.3 -0.84 -1.66 -1.7 -1.86 c-0.16 -0.04 -0.06 -0.68 0.1 -0.66 c1.48 0.14 3.82 0.12 5.16 0.12 c1.82 0 3.16 -0.08 4.76 -0.12 c0.48 0 0.48 0.32 0.38 0.78 l-0.48 1.88 c-0.06 0.28 -0.56 0.28 -0.64 0 c-0.3 -0.96 -0.9 -1.56 -3.42 -1.56 c-1.46 0 -1.92 0.36 -1.92 1.44 l0 3.28 c0 0.52 0.26 0.62 0.66 0.62 l0.42 0 c1.68 0 3.06 -0.14 3.9 -0.92 c0.2 -0.18 0.64 -0.14 0.46 0.24 l-1.16 2.52 c-0.14 0.34 -0.44 0.3 -0.66 0.02 c-0.46 -0.64 -1.5 -0.9 -2.7 -0.9 l-0.26 0 c-0.4 0 -0.66 0.1 -0.66 0.62 l0 3.42 c0 1.14 0.5 1.54 2.2 1.54 c3.12 0 4.24 -1.34 4.72 -2.14 c0.16 -0.24 0.66 -0.14 0.66 0.2 c0 1.06 -0.84 3.04 -2.08 3.04 c-1.06 -0.06 -2.24 -0.12 -3.92 -0.12 c-1.86 0 -3.94 -0.06 -5.78 0.12 z M68.08 6 c0.26 0 0.32 0.62 0.06 0.66 c-0.82 0.12 -1.42 0.42 -2.1 2.14 l-3.02 7.8 c-0.64 1.64 -0.96 2.62 -0.96 3.4 c0 0.12 -1.4 0.44 -1.46 0.3 l-3.14 -8.04 l-1.84 4.34 c-0.7 1.64 -0.96 2.62 -0.96 3.4 c0 0.12 -1.42 0.44 -1.48 0.3 l-4.52 -11.48 c-0.7 -1.74 -1.3 -2.04 -2.08 -2.16 c-0.26 -0.04 -0.2 -0.66 0.06 -0.66 l5.06 0 c0.26 0 0.3 0.62 0.06 0.66 c-0.88 0.16 -1.42 0.54 -0.8 2.14 l3.24 8.36 l2.06 -4.9 c0.46 -1.04 0.52 -1.7 -0.02 -3.1 l-0.02 -0.04 c-0.72 -1.86 -1.24 -2.32 -1.76 -2.46 c-0.24 -0.06 -0.2 -0.66 0.06 -0.66 l3.78 0 c0.2 0 0.26 0.06 0.26 0.16 c0 0.24 -0.84 0.84 -0.16 2.64 l3.18 8.24 l3.14 -8.24 c0.68 -1.72 0.04 -1.96 -0.96 -2.14 c-0.22 -0.04 -0.18 -0.66 0.06 -0.66 l4.26 0 z M82.21 20.04 c-0.2 0.02 -0.28 -0.64 -0.12 -0.68 c1.16 -0.3 2.08 -0.48 2.08 -1.96 l0 -8.92 c0 -1.3 -0.84 -1.66 -1.7 -1.86 c-0.16 -0.04 -0.06 -0.68 0.1 -0.66 c1.48 0.14 3.82 0.12 5.16 0.12 c1.82 0 3.16 -0.08 4.76 -0.12 c0.48 0 0.48 0.32 0.38 0.78 l-0.48 1.88 c-0.06 0.28 -0.56 0.28 -0.64 0 c-0.3 -0.96 -0.9 -1.56 -3.42 -1.56 c-1.46 0 -1.92 0.36 -1.92 1.44 l0 3.28 c0 0.52 0.26 0.62 0.66 0.62 l0.42 0 c1.68 0 3.06 -0.14 3.9 -0.92 c0.2 -0.18 0.64 -0.14 0.46 0.24 l-1.16 2.52 c-0.14 0.34 -0.44 0.3 -0.66 0.02 c-0.46 -0.64 -1.5 -0.9 -2.7 -0.9 l-0.26 0 c-0.4 0 -0.66 0.1 -0.66 0.62 l0 3.42 c0 1.14 0.5 1.54 2.2 1.54 c3.12 0 4.24 -1.34 4.72 -2.14 c0.16 -0.24 0.66 -0.14 0.66 0.2 c0 1.06 -0.84 3.04 -2.08 3.04 c-1.06 -0.06 -2.24 -0.12 -3.92 -0.12 c-1.86 0 -3.94 -0.06 -5.78 0.12 z M108.1 20.04 c-0.2 0.02 -0.28 -0.64 -0.12 -0.68 c1.16 -0.3 2.08 -0.48 2.08 -1.96 l0 -8.96 c0 -1.4 -0.84 -1.68 -1.7 -1.8 c-0.16 -0.02 -0.04 -0.64 0.1 -0.64 l5.38 0 c0.16 0 0.26 0.62 0.12 0.64 c-0.86 0.12 -1.66 0.4 -1.66 1.8 l0 8.96 c0 1.14 0.5 1.54 2.2 1.54 c3.12 0 4.24 -1.34 4.72 -2.14 c0.16 -0.24 0.66 -0.14 0.66 0.2 c0 1.06 -0.84 3.04 -2.08 3.04 c-1.06 -0.06 -2.24 -0.12 -3.92 -0.12 c-1.86 0 -3.94 -0.06 -5.78 0.12 z M148.39 19.52 c0.16 0 0.12 0.52 0 0.56 c-1.2 0.44 -2.9 0.34 -4.06 -1.16 l-3.1 -3.98 c-0.84 -1.1 -1.92 -1.28 -3.34 -1.3 l0 3.9 c0 1.4 0.94 1.64 2.26 1.8 c0.14 0.02 0.04 0.66 -0.12 0.66 l-5.94 0 c-0.16 0 -0.28 -0.64 -0.12 -0.66 c1 -0.14 1.68 -0.52 1.68 -1.8 l0 -8.98 c0 -1.32 -0.72 -1.7 -1.68 -1.96 c-0.16 -0.04 -0.06 -0.66 0.12 -0.64 c0.78 0.1 1.68 0.12 2.3 0.12 c1.42 0 2.74 -0.12 3.68 -0.12 c2.96 0 5 1.22 5 3.7 c0 2.34 -1.92 3.48 -3.52 3.58 l0 0.1 c0.76 0 1.32 0.34 2.18 1.42 l3.02 3.78 c0.6 0.76 1.16 0.98 1.64 0.98 z M138.48999999999998 12.76 c3 0 4.22 -0.52 4.22 -2.58 c0 -2.14 -1.4 -3.22 -3.22 -3.22 c-1.18 0 -1.6 0.48 -1.6 1.6 l0 4.2 l0.6 0 z M175.7 6 c0.26 0 0.32 0.62 0.06 0.66 c-0.78 0.12 -1.46 0.68 -2.38 2.14 l-3.24 5.06 l0 3.68 c0 1.4 0.82 1.64 2.06 1.8 c0.14 0.02 0.04 0.66 -0.12 0.66 l-6.14 0 c-0.16 0 -0.26 -0.64 -0.12 -0.66 c1.32 -0.16 2.08 -0.42 2.08 -1.8 l0 -3.62 l-3.38 -5.1 c-0.94 -1.4 -1.5 -2.02 -2.36 -2.16 c-0.26 -0.04 -0.2 -0.66 0.06 -0.66 l5.14 0 c0.26 0 0.3 0.62 0.06 0.66 c-0.88 0.14 -1.24 0.82 -0.36 2.14 l2.6 3.86 l2.48 -3.86 c0.86 -1.32 0.36 -1.98 -0.72 -2.14 c-0.26 -0.04 -0.2 -0.66 0.06 -0.66 l4.22 0 z">
		</path>
	</g>
</svg>
